<?xml version="1.0" standalone="no"?>
<!DOCTYPE svg PUBLIC "-//W3C//DTD SVG 1.1//EN"
  "http://www.w3.org/Graphics/SVG/1.1/DTD/svg11.dtd">
<svg width="179.8000030517578mm" height="179.80000305175778mm" viewBox="-89.80000305175781 -89.8000030517578 179.8000030517578 179.80000305175778" xmlns="http://www.w3.org/2000/svg" version="1.1">
	<title>svgOutput</title>
	<desc>made with tinkercad</desc>
<path d="M -88.80000305175781 88.99999999999999 L -88.80000305175781 -88.8000030517578 L -80.10299682617188 -88.8000030517578 L 80.3030014038086 -88.8000030517578 L 89 -88.8000030517578 L 89 88.99999999999999 L 80.3030014038086 88.99999999999999 L -80.10299682617188 88.99999999999999 L -88.80000305175781 88.99999999999999 M 68.0999984741211 80.30300140380858 L 68.0999984741211 70.49999999999999 L 60.70000076293945 70.49999999999999 L 60.70000076293945 80.30300140380858 L 68.0999984741211 80.30300140380858 M 70.5999984741211 70.49999999999999 L 70.5999984741211 80.30300140380858 L 80.3030014038086 80.30300140380858 L 80.3030014038086 70.49999999999999 L 70.5999984741211 70.49999999999999 M 58.20000076293945 80.30300140380858 L 58.20000076293945 70.49999999999999 L 51 70.49999999999999 L 51 80.30300140380858 L 58.20000076293945 80.30300140380858 M 48.5 80.30300140380858 L 48.5 70.49999999999999 L 41 70.49999999999999 L 41 80.30300140380858 L 48.5 80.30300140380858 M 38.5 80.30300140380858 L 38.5 70.49999999999999 L 31 70.49999999999999 L 31 80.30300140380858 L 38.5 80.30300140380858 M 28.5 80.30300140380858 L 28.5 70.49999999999999 L 21 70.49999999999999 L 21 80.30300140380858 L 28.5 80.30300140380858 M 18.5 80.30300140380858 L 18.5 70.49999999999999 L 11.399999618530273 70.49999999999999 L 11.399999618530273 80.30300140380858 L 18.5 80.30300140380858 M 8.899999618530273 80.30300140380858 L 8.899999618530273 70.49999999999999 L 1.2999999523162842 70.49999999999999 L 1.2999999523162842 80.30300140380858 L 8.899999618530273 80.30300140380858 M -1.2000000476837158 80.30300140380858 L -1.2000000476837158 70.49999999999999 L -8.5 70.49999999999999 L -8.5 80.30300140380858 L -1.2000000476837158 80.30300140380858 M -11 80.30300140380858 L -11 70.49999999999999 L -18.600000381469727 70.49999999999999 L -18.600000381469727 80.30300140380858 L -11 80.30300140380858 M -21.100000381469727 80.30300140380858 L -21.100000381469727 70.49999999999999 L -28.299999237060547 70.49999999999999 L -28.299999237060547 80.30300140380858 L -21.100000381469727 80.30300140380858 M -30.799999237060547 80.30300140380858 L -30.799999237060547 70.49999999999999 L -38.099998474121094 70.49999999999999 L -38.099998474121094 80.30300140380858 L -30.799999237060547 80.30300140380858 M -40.599998474121094 80.30300140380858 L -40.599998474121094 70.49999999999999 L -48 70.49999999999999 L -48 80.30300140380858 L -40.599998474121094 80.30300140380858 M -50.5 80.30300140380858 L -50.5 70.49999999999999 L -58.20000076293945 70.49999999999999 L -58.20000076293945 80.30300140380858 L -50.5 80.30300140380858 M -60.70000076293945 80.30300140380858 L -60.70000076293945 70.49999999999999 L -67.9000015258789 70.49999999999999 L -67.9000015258789 80.30300140380858 L -60.70000076293945 80.30300140380858 M -70.4000015258789 70.49999999999999 L -80.10299682617188 70.49999999999999 L -80.10299682617188 80.30300140380858 L -70.4000015258789 80.30300140380858 L -70.4000015258789 70.49999999999999 M 68.0999984741211 67.99999999999999 L 68.0999984741211 60.59999847412108 L 60.70000076293945 60.59999847412108 L 60.70000076293945 67.99999999999999 L 68.0999984741211 67.99999999999999 M 70.5999984741211 60.59999847412108 L 70.5999984741211 67.99999999999999 L 80.3030014038086 67.99999999999999 L 80.3030014038086 60.59999847412108 L 70.5999984741211 60.59999847412108 M 58.20000076293945 67.99999999999999 L 58.20000076293945 60.59999847412108 L 51 60.59999847412108 L 51 67.99999999999999 L 58.20000076293945 67.99999999999999 M 48.5 67.99999999999999 L 48.5 60.59999847412108 L 41 60.59999847412108 L 41 67.99999999999999 L 48.5 67.99999999999999 M 38.5 67.99999999999999 L 38.5 60.59999847412108 L 31 60.59999847412108 L 31 67.99999999999999 L 38.5 67.99999999999999 M 28.5 67.99999999999999 L 28.5 60.59999847412108 L 21 60.59999847412108 L 21 67.99999999999999 L 28.5 67.99999999999999 M 18.5 67.99999999999999 L 18.5 60.59999847412108 L 11.399999618530273 60.59999847412108 L 11.399999618530273 67.99999999999999 L 18.5 67.99999999999999 M 8.899999618530273 67.99999999999999 L 8.899999618530273 60.59999847412108 L 1.2999999523162842 60.59999847412108 L 1.2999999523162842 67.99999999999999 L 8.899999618530273 67.99999999999999 M -1.2000000476837158 67.99999999999999 L -1.2000000476837158 60.59999847412108 L -8.5 60.59999847412108 L -8.5 67.99999999999999 L -1.2000000476837158 67.99999999999999 M -11 67.99999999999999 L -11 60.59999847412108 L -18.600000381469727 60.59999847412108 L -18.600000381469727 67.99999999999999 L -11 67.99999999999999 M -21.100000381469727 67.99999999999999 L -21.100000381469727 60.59999847412108 L -28.299999237060547 60.59999847412108 L -28.299999237060547 67.99999999999999 L -21.100000381469727 67.99999999999999 M -30.799999237060547 67.99999999999999 L -30.799999237060547 60.59999847412108 L -38.099998474121094 60.59999847412108 L -38.099998474121094 67.99999999999999 L -30.799999237060547 67.99999999999999 M -40.599998474121094 67.99999999999999 L -40.599998474121094 60.59999847412108 L -48 60.59999847412108 L -48 67.99999999999999 L -40.599998474121094 67.99999999999999 M -50.5 67.99999999999999 L -50.5 60.59999847412108 L -58.20000076293945 60.59999847412108 L -58.20000076293945 67.99999999999999 L -50.5 67.99999999999999 M -60.70000076293945 67.99999999999999 L -60.70000076293945 60.59999847412108 L -67.9000015258789 60.59999847412108 L -67.9000015258789 67.99999999999999 L -60.70000076293945 67.99999999999999 M -70.4000015258789 60.59999847412108 L -80.10299682617188 60.59999847412108 L -80.10299682617188 67.99999999999999 L -70.4000015258789 67.99999999999999 L -70.4000015258789 60.59999847412108 M 68.0999984741211 58.09999847412108 L 68.0999984741211 50.90000152587889 L 60.70000076293945 50.90000152587889 L 60.70000076293945 58.09999847412108 L 68.0999984741211 58.09999847412108 M 70.5999984741211 50.90000152587889 L 70.5999984741211 58.09999847412108 L 80.3030014038086 58.09999847412108 L 80.3030014038086 50.90000152587889 L 70.5999984741211 50.90000152587889 M 58.20000076293945 58.09999847412108 L 58.20000076293945 50.90000152587889 L 51 50.90000152587889 L 51 58.09999847412108 L 58.20000076293945 58.09999847412108 M 48.5 58.09999847412108 L 48.5 50.90000152587889 L 41 50.90000152587889 L 41 58.09999847412108 L 48.5 58.09999847412108 M 38.5 58.09999847412108 L 38.5 50.90000152587889 L 31 50.90000152587889 L 31 58.09999847412108 L 38.5 58.09999847412108 M 28.5 58.09999847412108 L 28.5 50.90000152587889 L 21 50.90000152587889 L 21 58.09999847412108 L 28.5 58.09999847412108 M 18.5 58.09999847412108 L 18.5 50.90000152587889 L 11.399999618530273 50.90000152587889 L 11.399999618530273 58.09999847412108 L 18.5 58.09999847412108 M 8.899999618530273 58.09999847412108 L 8.899999618530273 50.90000152587889 L 1.2999999523162842 50.90000152587889 L 1.2999999523162842 58.09999847412108 L 8.899999618530273 58.09999847412108 M -1.2000000476837158 58.09999847412108 L -1.2000000476837158 50.90000152587889 L -8.5 50.90000152587889 L -8.5 58.09999847412108 L -1.2000000476837158 58.09999847412108 M -11 58.09999847412108 L -11 50.90000152587889 L -18.600000381469727 50.90000152587889 L -18.600000381469727 58.09999847412108 L -11 58.09999847412108 M -21.100000381469727 58.09999847412108 L -21.100000381469727 50.90000152587889 L -28.299999237060547 50.90000152587889 L -28.299999237060547 58.09999847412108 L -21.100000381469727 58.09999847412108 M -30.799999237060547 58.09999847412108 L -30.799999237060547 50.90000152587889 L -38.099998474121094 50.90000152587889 L -38.099998474121094 58.09999847412108 L -30.799999237060547 58.09999847412108 M -40.599998474121094 58.09999847412108 L -40.599998474121094 50.90000152587889 L -48 50.90000152587889 L -48 58.09999847412108 L -40.599998474121094 58.09999847412108 M -50.5 58.09999847412108 L -50.5 50.90000152587889 L -58.20000076293945 50.90000152587889 L -58.20000076293945 58.09999847412108 L -50.5 58.09999847412108 M -60.70000076293945 58.09999847412108 L -60.70000076293945 50.90000152587889 L -67.9000015258789 50.90000152587889 L -67.9000015258789 58.09999847412108 L -60.70000076293945 58.09999847412108 M -70.4000015258789 50.90000152587889 L -80.10299682617188 50.90000152587889 L -80.10299682617188 58.09999847412108 L -70.4000015258789 58.09999847412108 L -70.4000015258789 50.90000152587889 M 68.0999984741211 48.40000152587889 L 68.0999984741211 40.9000015258789 L 60.70000076293945 40.9000015258789 L 60.70000076293945 48.40000152587889 L 68.0999984741211 48.40000152587889 M 70.5999984741211 40.9000015258789 L 70.5999984741211 48.40000152587889 L 80.3030014038086 48.40000152587889 L 80.3030014038086 40.9000015258789 L 70.5999984741211 40.9000015258789 M 58.20000076293945 48.40000152587889 L 58.20000076293945 40.9000015258789 L 51 40.9000015258789 L 51 48.40000152587889 L 58.20000076293945 48.40000152587889 M 48.5 48.40000152587889 L 48.5 40.9000015258789 L 41 40.9000015258789 L 41 48.40000152587889 L 48.5 48.40000152587889 M 38.5 48.40000152587889 L 38.5 40.9000015258789 L 31 40.9000015258789 L 31 48.40000152587889 L 38.5 48.40000152587889 M 28.5 48.40000152587889 L 28.5 40.9000015258789 L 21 40.9000015258789 L 21 48.40000152587889 L 28.5 48.40000152587889 M 18.5 48.40000152587889 L 18.5 40.9000015258789 L 11.399999618530273 40.9000015258789 L 11.399999618530273 48.40000152587889 L 18.5 48.40000152587889 M 8.899999618530273 48.40000152587889 L 8.899999618530273 40.9000015258789 L 1.2999999523162842 40.9000015258789 L 1.2999999523162842 48.40000152587889 L 8.899999618530273 48.40000152587889 M -1.2000000476837158 48.40000152587889 L -1.2000000476837158 40.9000015258789 L -8.5 40.9000015258789 L -8.5 48.40000152587889 L -1.2000000476837158 48.40000152587889 M -11 48.40000152587889 L -11 40.9000015258789 L -18.600000381469727 40.9000015258789 L -18.600000381469727 48.40000152587889 L -11 48.40000152587889 M -21.100000381469727 48.40000152587889 L -21.100000381469727 40.9000015258789 L -28.299999237060547 40.9000015258789 L -28.299999237060547 48.40000152587889 L -21.100000381469727 48.40000152587889 M -30.799999237060547 48.40000152587889 L -30.799999237060547 40.9000015258789 L -38.099998474121094 40.9000015258789 L -38.099998474121094 48.40000152587889 L -30.799999237060547 48.40000152587889 M -40.599998474121094 48.40000152587889 L -40.599998474121094 40.9000015258789 L -48 40.9000015258789 L -48 48.40000152587889 L -40.599998474121094 48.40000152587889 M -50.5 48.40000152587889 L -50.5 40.9000015258789 L -58.20000076293945 40.9000015258789 L -58.20000076293945 48.40000152587889 L -50.5 48.40000152587889 M -60.70000076293945 48.40000152587889 L -60.70000076293945 40.9000015258789 L -67.9000015258789 40.9000015258789 L -67.9000015258789 48.40000152587889 L -60.70000076293945 48.40000152587889 M -70.4000015258789 40.9000015258789 L -80.10299682617188 40.9000015258789 L -80.10299682617188 48.40000152587889 L -70.4000015258789 48.40000152587889 L -70.4000015258789 40.9000015258789 M 68.0999984741211 38.4000015258789 L 68.0999984741211 30.899999618530266 L 60.70000076293945 30.899999618530266 L 60.70000076293945 38.4000015258789 L 68.0999984741211 38.4000015258789 M 70.5999984741211 30.899999618530266 L 70.5999984741211 38.4000015258789 L 80.3030014038086 38.4000015258789 L 80.3030014038086 30.899999618530266 L 70.5999984741211 30.899999618530266 M 58.20000076293945 38.4000015258789 L 58.20000076293945 30.899999618530266 L 51 30.899999618530266 L 51 38.4000015258789 L 58.20000076293945 38.4000015258789 M 48.5 38.4000015258789 L 48.5 30.899999618530266 L 41 30.899999618530266 L 41 38.4000015258789 L 48.5 38.4000015258789 M 38.5 38.4000015258789 L 38.5 30.899999618530266 L 31 30.899999618530266 L 31 38.4000015258789 L 38.5 38.4000015258789 M 28.5 38.4000015258789 L 28.5 30.899999618530266 L 21 30.899999618530266 L 21 38.4000015258789 L 28.5 38.4000015258789 M 18.5 38.4000015258789 L 18.5 30.899999618530266 L 11.399999618530273 30.899999618530266 L 11.399999618530273 38.4000015258789 L 18.5 38.4000015258789 M 8.899999618530273 38.4000015258789 L 8.899999618530273 30.899999618530266 L 1.2999999523162842 30.899999618530266 L 1.2999999523162842 38.4000015258789 L 8.899999618530273 38.4000015258789 M -1.2000000476837158 38.4000015258789 L -1.2000000476837158 30.899999618530266 L -8.5 30.899999618530266 L -8.5 38.4000015258789 L -1.2000000476837158 38.4000015258789 M -11 38.4000015258789 L -11 30.899999618530266 L -18.600000381469727 30.899999618530266 L -18.600000381469727 38.4000015258789 L -11 38.4000015258789 M -21.100000381469727 38.4000015258789 L -21.100000381469727 30.899999618530266 L -28.299999237060547 30.899999618530266 L -28.299999237060547 38.4000015258789 L -21.100000381469727 38.4000015258789 M -30.799999237060547 38.4000015258789 L -30.799999237060547 30.899999618530266 L -38.099998474121094 30.899999618530266 L -38.099998474121094 38.4000015258789 L -30.799999237060547 38.4000015258789 M -40.599998474121094 38.4000015258789 L -40.599998474121094 30.899999618530266 L -48 30.899999618530266 L -48 38.4000015258789 L -40.599998474121094 38.4000015258789 M -50.5 38.4000015258789 L -50.5 30.899999618530266 L -58.20000076293945 30.899999618530266 L -58.20000076293945 38.4000015258789 L -50.5 38.4000015258789 M -60.70000076293945 38.4000015258789 L -60.70000076293945 30.899999618530266 L -67.9000015258789 30.899999618530266 L -67.9000015258789 38.4000015258789 L -60.70000076293945 38.4000015258789 M -70.4000015258789 30.899999618530266 L -80.10299682617188 30.899999618530266 L -80.10299682617188 38.4000015258789 L -70.4000015258789 38.4000015258789 L -70.4000015258789 30.899999618530266 M 68.0999984741211 28.399999618530266 L 68.0999984741211 20.89999961853027 L 60.70000076293945 20.89999961853027 L 60.70000076293945 28.399999618530266 L 68.0999984741211 28.399999618530266 M 70.5999984741211 20.89999961853027 L 70.5999984741211 28.399999618530266 L 80.3030014038086 28.399999618530266 L 80.3030014038086 20.89999961853027 L 70.5999984741211 20.89999961853027 M 58.20000076293945 28.399999618530266 L 58.20000076293945 20.89999961853027 L 51 20.89999961853027 L 51 28.399999618530266 L 58.20000076293945 28.399999618530266 M 48.5 28.399999618530266 L 48.5 20.89999961853027 L 41 20.89999961853027 L 41 28.399999618530266 L 48.5 28.399999618530266 M 38.5 28.399999618530266 L 38.5 20.89999961853027 L 31 20.89999961853027 L 31 28.399999618530266 L 38.5 28.399999618530266 M 28.5 28.399999618530266 L 28.5 20.89999961853027 L 21 20.89999961853027 L 21 28.399999618530266 L 28.5 28.399999618530266 M 18.5 28.399999618530266 L 18.5 20.89999961853027 L 11.399999618530273 20.89999961853027 L 11.399999618530273 28.399999618530266 L 18.5 28.399999618530266 M 8.899999618530273 28.399999618530266 L 8.899999618530273 20.89999961853027 L 1.2999999523162842 20.89999961853027 L 1.2999999523162842 28.399999618530266 L 8.899999618530273 28.399999618530266 M -1.2000000476837158 28.399999618530266 L -1.2000000476837158 20.89999961853027 L -8.5 20.89999961853027 L -8.5 28.399999618530266 L -1.2000000476837158 28.399999618530266 M -11 28.399999618530266 L -11 20.89999961853027 L -18.600000381469727 20.89999961853027 L -18.600000381469727 28.399999618530266 L -11 28.399999618530266 M -21.100000381469727 28.399999618530266 L -21.100000381469727 20.89999961853027 L -28.299999237060547 20.89999961853027 L -28.299999237060547 28.399999618530266 L -21.100000381469727 28.399999618530266 M -30.799999237060547 28.399999618530266 L -30.799999237060547 20.89999961853027 L -38.099998474121094 20.89999961853027 L -38.099998474121094 28.399999618530266 L -30.799999237060547 28.399999618530266 M -40.599998474121094 28.399999618530266 L -40.599998474121094 20.89999961853027 L -48 20.89999961853027 L -48 28.399999618530266 L -40.599998474121094 28.399999618530266 M -50.5 28.399999618530266 L -50.5 20.89999961853027 L -58.20000076293945 20.89999961853027 L -58.20000076293945 28.399999618530266 L -50.5 28.399999618530266 M -60.70000076293945 28.399999618530266 L -60.70000076293945 20.89999961853027 L -67.9000015258789 20.89999961853027 L -67.9000015258789 28.399999618530266 L -60.70000076293945 28.399999618530266 M -70.4000015258789 20.89999961853027 L -80.10299682617188 20.89999961853027 L -80.10299682617188 28.399999618530266 L -70.4000015258789 28.399999618530266 L -70.4000015258789 20.89999961853027 M 68.0999984741211 18.39999961853027 L 68.0999984741211 11.300000190734862 L 60.70000076293945 11.300000190734862 L 60.70000076293945 18.39999961853027 L 68.0999984741211 18.39999961853027 M 70.5999984741211 11.300000190734862 L 70.5999984741211 18.39999961853027 L 80.3030014038086 18.39999961853027 L 80.3030014038086 11.300000190734862 L 70.5999984741211 11.300000190734862 M 58.20000076293945 18.39999961853027 L 58.20000076293945 11.300000190734862 L 51 11.300000190734862 L 51 18.39999961853027 L 58.20000076293945 18.39999961853027 M 48.5 18.39999961853027 L 48.5 11.300000190734862 L 41 11.300000190734862 L 41 18.39999961853027 L 48.5 18.39999961853027 M 38.5 18.39999961853027 L 38.5 11.300000190734862 L 31 11.300000190734862 L 31 18.39999961853027 L 38.5 18.39999961853027 M 28.5 18.39999961853027 L 28.5 11.300000190734862 L 21 11.300000190734862 L 21 18.39999961853027 L 28.5 18.39999961853027 M 18.5 18.39999961853027 L 18.5 11.300000190734862 L 11.399999618530273 11.300000190734862 L 11.399999618530273 18.39999961853027 L 18.5 18.39999961853027 M 8.899999618530273 18.39999961853027 L 8.899999618530273 11.300000190734862 L 1.2999999523162842 11.300000190734862 L 1.2999999523162842 18.39999961853027 L 8.899999618530273 18.39999961853027 M -1.2000000476837158 18.39999961853027 L -1.2000000476837158 11.300000190734862 L -8.5 11.300000190734862 L -8.5 18.39999961853027 L -1.2000000476837158 18.39999961853027 M -11 18.39999961853027 L -11 11.300000190734862 L -18.600000381469727 11.300000190734862 L -18.600000381469727 18.39999961853027 L -11 18.39999961853027 M -21.100000381469727 18.39999961853027 L -21.100000381469727 11.300000190734862 L -28.299999237060547 11.300000190734862 L -28.299999237060547 18.39999961853027 L -21.100000381469727 18.39999961853027 M -30.799999237060547 18.39999961853027 L -30.799999237060547 11.300000190734862 L -38.099998474121094 11.300000190734862 L -38.099998474121094 18.39999961853027 L -30.799999237060547 18.39999961853027 M -40.599998474121094 18.39999961853027 L -40.599998474121094 11.300000190734862 L -48 11.300000190734862 L -48 18.39999961853027 L -40.599998474121094 18.39999961853027 M -50.5 18.39999961853027 L -50.5 11.300000190734862 L -58.20000076293945 11.300000190734862 L -58.20000076293945 18.39999961853027 L -50.5 18.39999961853027 M -60.70000076293945 18.39999961853027 L -60.70000076293945 11.300000190734862 L -67.9000015258789 11.300000190734862 L -67.9000015258789 18.39999961853027 L -60.70000076293945 18.39999961853027 M -70.4000015258789 11.300000190734862 L -80.10299682617188 11.300000190734862 L -80.10299682617188 18.39999961853027 L -70.4000015258789 18.39999961853027 L -70.4000015258789 11.300000190734862 M 68.0999984741211 8.800000190734862 L 68.0999984741211 1.2000000476837158 L 60.70000076293945 1.2000000476837158 L 60.70000076293945 8.800000190734862 L 68.0999984741211 8.800000190734862 M 70.5999984741211 1.2000000476837158 L 70.5999984741211 8.800000190734862 L 80.3030014038086 8.800000190734862 L 80.3030014038086 1.2000000476837158 L 70.5999984741211 1.2000000476837158 M 58.20000076293945 8.800000190734862 L 58.20000076293945 1.2000000476837158 L 51 1.2000000476837158 L 51 8.800000190734862 L 58.20000076293945 8.800000190734862 M 48.5 8.800000190734862 L 48.5 1.2000000476837158 L 41 1.2000000476837158 L 41 8.800000190734862 L 48.5 8.800000190734862 M 38.5 8.800000190734862 L 38.5 1.2000000476837158 L 31 1.2000000476837158 L 31 8.800000190734862 L 38.5 8.800000190734862 M 28.5 8.800000190734862 L 28.5 1.2000000476837158 L 21 1.2000000476837158 L 21 8.800000190734862 L 28.5 8.800000190734862 M 18.5 8.800000190734862 L 18.5 1.2000000476837158 L 11.399999618530273 1.2000000476837158 L 11.399999618530273 8.800000190734862 L 18.5 8.800000190734862 M 8.899999618530273 8.800000190734862 L 8.899999618530273 1.2000000476837158 L 1.2999999523162842 1.2000000476837158 L 1.2999999523162842 8.800000190734862 L 8.899999618530273 8.800000190734862 M -1.2000000476837158 8.800000190734862 L -1.2000000476837158 1.2000000476837158 L -8.5 1.2000000476837158 L -8.5 8.800000190734862 L -1.2000000476837158 8.800000190734862 M -11 8.800000190734862 L -11 1.2000000476837158 L -18.600000381469727 1.2000000476837158 L -18.600000381469727 8.800000190734862 L -11 8.800000190734862 M -21.100000381469727 8.800000190734862 L -21.100000381469727 1.2000000476837158 L -28.299999237060547 1.2000000476837158 L -28.299999237060547 8.800000190734862 L -21.100000381469727 8.800000190734862 M -30.799999237060547 8.800000190734862 L -30.799999237060547 1.2000000476837158 L -38.099998474121094 1.2000000476837158 L -38.099998474121094 8.800000190734862 L -30.799999237060547 8.800000190734862 M -40.599998474121094 8.800000190734862 L -40.599998474121094 1.2000000476837158 L -48 1.2000000476837158 L -48 8.800000190734862 L -40.599998474121094 8.800000190734862 M -50.5 8.800000190734862 L -50.5 1.2000000476837158 L -58.20000076293945 1.2000000476837158 L -58.20000076293945 8.800000190734862 L -50.5 8.800000190734862 M -60.70000076293945 8.800000190734862 L -60.70000076293945 1.2000000476837158 L -67.9000015258789 1.2000000476837158 L -67.9000015258789 8.800000190734862 L -60.70000076293945 8.800000190734862 M -70.4000015258789 1.2000000476837158 L -80.10299682617188 1.2000000476837158 L -80.10299682617188 8.800000190734862 L -70.4000015258789 8.800000190734862 L -70.4000015258789 1.2000000476837158 M 68.0999984741211 -1.2999999523162837 L 68.0999984741211 -8.600000381469725 L 60.70000076293945 -8.600000381469725 L 60.70000076293945 -1.2999999523162837 L 68.0999984741211 -1.2999999523162837 M 70.5999984741211 -8.600000381469725 L 70.5999984741211 -1.2999999523162837 L 80.3030014038086 -1.2999999523162837 L 80.3030014038086 -8.600000381469725 L 70.5999984741211 -8.600000381469725 M 58.20000076293945 -1.2999999523162837 L 58.20000076293945 -8.600000381469725 L 51 -8.600000381469725 L 51 -1.2999999523162837 L 58.20000076293945 -1.2999999523162837 M 48.5 -1.2999999523162837 L 48.5 -8.600000381469725 L 41 -8.600000381469725 L 41 -1.2999999523162837 L 48.5 -1.2999999523162837 M 38.5 -1.2999999523162837 L 38.5 -8.600000381469725 L 31 -8.600000381469725 L 31 -1.2999999523162837 L 38.5 -1.2999999523162837 M 28.5 -1.2999999523162837 L 28.5 -8.600000381469725 L 21 -8.600000381469725 L 21 -1.2999999523162837 L 28.5 -1.2999999523162837 M 18.5 -1.2999999523162837 L 18.5 -8.600000381469725 L 11.399999618530273 -8.600000381469725 L 11.399999618530273 -1.2999999523162837 L 18.5 -1.2999999523162837 M 8.899999618530273 -1.2999999523162837 L 8.899999618530273 -8.600000381469725 L 1.2999999523162842 -8.600000381469725 L 1.2999999523162842 -1.2999999523162837 L 8.899999618530273 -1.2999999523162837 M -1.2000000476837158 -1.2999999523162837 L -1.2000000476837158 -8.600000381469725 L -8.5 -8.600000381469725 L -8.5 -1.2999999523162837 L -1.2000000476837158 -1.2999999523162837 M -11 -1.2999999523162837 L -11 -8.600000381469725 L -18.600000381469727 -8.600000381469725 L -18.600000381469727 -1.2999999523162837 L -11 -1.2999999523162837 M -21.100000381469727 -1.2999999523162837 L -21.100000381469727 -8.600000381469725 L -28.299999237060547 -8.600000381469725 L -28.299999237060547 -1.2999999523162837 L -21.100000381469727 -1.2999999523162837 M -30.799999237060547 -1.2999999523162837 L -30.799999237060547 -8.600000381469725 L -38.099998474121094 -8.600000381469725 L -38.099998474121094 -1.2999999523162837 L -30.799999237060547 -1.2999999523162837 M -40.599998474121094 -1.2999999523162837 L -40.599998474121094 -8.600000381469725 L -48 -8.600000381469725 L -48 -1.2999999523162837 L -40.599998474121094 -1.2999999523162837 M -50.5 -1.2999999523162837 L -50.5 -8.600000381469725 L -58.20000076293945 -8.600000381469725 L -58.20000076293945 -1.2999999523162837 L -50.5 -1.2999999523162837 M -60.70000076293945 -1.2999999523162837 L -60.70000076293945 -8.600000381469725 L -67.9000015258789 -8.600000381469725 L -67.9000015258789 -1.2999999523162837 L -60.70000076293945 -1.2999999523162837 M -70.4000015258789 -8.600000381469725 L -80.10299682617188 -8.600000381469725 L -80.10299682617188 -1.2999999523162837 L -70.4000015258789 -1.2999999523162837 L -70.4000015258789 -8.600000381469725 M 68.0999984741211 -11.100000381469725 L 68.0999984741211 -18.70000076293945 L 60.70000076293945 -18.70000076293945 L 60.70000076293945 -11.100000381469725 L 68.0999984741211 -11.100000381469725 M 70.5999984741211 -18.70000076293945 L 70.5999984741211 -11.100000381469725 L 80.3030014038086 -11.100000381469725 L 80.3030014038086 -18.70000076293945 L 70.5999984741211 -18.70000076293945 M 58.20000076293945 -11.100000381469725 L 58.20000076293945 -18.70000076293945 L 51 -18.70000076293945 L 51 -11.100000381469725 L 58.20000076293945 -11.100000381469725 M 48.5 -11.100000381469725 L 48.5 -18.70000076293945 L 41 -18.70000076293945 L 41 -11.100000381469725 L 48.5 -11.100000381469725 M 38.5 -11.100000381469725 L 38.5 -18.70000076293945 L 31 -18.70000076293945 L 31 -11.100000381469725 L 38.5 -11.100000381469725 M 28.5 -11.100000381469725 L 28.5 -18.70000076293945 L 21 -18.70000076293945 L 21 -11.100000381469725 L 28.5 -11.100000381469725 M 18.5 -11.100000381469725 L 18.5 -18.70000076293945 L 11.399999618530273 -18.70000076293945 L 11.399999618530273 -11.100000381469725 L 18.5 -11.100000381469725 M 8.899999618530273 -11.100000381469725 L 8.899999618530273 -18.70000076293945 L 1.2999999523162842 -18.70000076293945 L 1.2999999523162842 -11.100000381469725 L 8.899999618530273 -11.100000381469725 M -1.2000000476837158 -11.100000381469725 L -1.2000000476837158 -18.70000076293945 L -8.5 -18.70000076293945 L -8.5 -11.100000381469725 L -1.2000000476837158 -11.100000381469725 M -11 -11.100000381469725 L -11 -18.70000076293945 L -18.600000381469727 -18.70000076293945 L -18.600000381469727 -11.100000381469725 L -11 -11.100000381469725 M -21.100000381469727 -11.100000381469725 L -21.100000381469727 -18.70000076293945 L -28.299999237060547 -18.70000076293945 L -28.299999237060547 -11.100000381469725 L -21.100000381469727 -11.100000381469725 M -30.799999237060547 -11.100000381469725 L -30.799999237060547 -18.70000076293945 L -38.099998474121094 -18.70000076293945 L -38.099998474121094 -11.100000381469725 L -30.799999237060547 -11.100000381469725 M -40.599998474121094 -11.100000381469725 L -40.599998474121094 -18.70000076293945 L -48 -18.70000076293945 L -48 -11.100000381469725 L -40.599998474121094 -11.100000381469725 M -50.5 -11.100000381469725 L -50.5 -18.70000076293945 L -58.20000076293945 -18.70000076293945 L -58.20000076293945 -11.100000381469725 L -50.5 -11.100000381469725 M -60.70000076293945 -11.100000381469725 L -60.70000076293945 -18.70000076293945 L -67.9000015258789 -18.70000076293945 L -67.9000015258789 -11.100000381469725 L -60.70000076293945 -11.100000381469725 M -70.4000015258789 -18.70000076293945 L -80.10299682617188 -18.70000076293945 L -80.10299682617188 -11.100000381469725 L -70.4000015258789 -11.100000381469725 L -70.4000015258789 -18.70000076293945 M 68.0999984741211 -21.20000076293945 L 68.0999984741211 -28.399999618530266 L 60.70000076293945 -28.399999618530266 L 60.70000076293945 -21.20000076293945 L 68.0999984741211 -21.20000076293945 M 70.5999984741211 -28.399999618530266 L 70.5999984741211 -21.20000076293945 L 80.3030014038086 -21.20000076293945 L 80.3030014038086 -28.399999618530266 L 70.5999984741211 -28.399999618530266 M 58.20000076293945 -21.20000076293945 L 58.20000076293945 -28.399999618530266 L 51 -28.399999618530266 L 51 -21.20000076293945 L 58.20000076293945 -21.20000076293945 M 48.5 -21.20000076293945 L 48.5 -28.399999618530266 L 41 -28.399999618530266 L 41 -21.20000076293945 L 48.5 -21.20000076293945 M 38.5 -21.20000076293945 L 38.5 -28.399999618530266 L 31 -28.399999618530266 L 31 -21.20000076293945 L 38.5 -21.20000076293945 M 28.5 -21.20000076293945 L 28.5 -28.399999618530266 L 21 -28.399999618530266 L 21 -21.20000076293945 L 28.5 -21.20000076293945 M 18.5 -21.20000076293945 L 18.5 -28.399999618530266 L 11.399999618530273 -28.399999618530266 L 11.399999618530273 -21.20000076293945 L 18.5 -21.20000076293945 M 8.899999618530273 -21.20000076293945 L 8.899999618530273 -28.399999618530266 L 1.2999999523162842 -28.399999618530266 L 1.2999999523162842 -21.20000076293945 L 8.899999618530273 -21.20000076293945 M -1.2000000476837158 -21.20000076293945 L -1.2000000476837158 -28.399999618530266 L -8.5 -28.399999618530266 L -8.5 -21.20000076293945 L -1.2000000476837158 -21.20000076293945 M -11 -21.20000076293945 L -11 -28.399999618530266 L -18.600000381469727 -28.399999618530266 L -18.600000381469727 -21.20000076293945 L -11 -21.20000076293945 M -21.100000381469727 -21.20000076293945 L -21.100000381469727 -28.399999618530266 L -28.299999237060547 -28.399999618530266 L -28.299999237060547 -21.20000076293945 L -21.100000381469727 -21.20000076293945 M -30.799999237060547 -21.20000076293945 L -30.799999237060547 -28.399999618530266 L -38.099998474121094 -28.399999618530266 L -38.099998474121094 -21.20000076293945 L -30.799999237060547 -21.20000076293945 M -40.599998474121094 -21.20000076293945 L -40.599998474121094 -28.399999618530266 L -48 -28.399999618530266 L -48 -21.20000076293945 L -40.599998474121094 -21.20000076293945 M -50.5 -21.20000076293945 L -50.5 -28.399999618530266 L -58.20000076293945 -28.399999618530266 L -58.20000076293945 -21.20000076293945 L -50.5 -21.20000076293945 M -60.70000076293945 -21.20000076293945 L -60.70000076293945 -28.399999618530266 L -67.9000015258789 -28.399999618530266 L -67.9000015258789 -21.20000076293945 L -60.70000076293945 -21.20000076293945 M -70.4000015258789 -28.399999618530266 L -80.10299682617188 -28.399999618530266 L -80.10299682617188 -21.20000076293945 L -70.4000015258789 -21.20000076293945 L -70.4000015258789 -28.399999618530266 M 68.0999984741211 -30.899999618530266 L 68.0999984741211 -38.200000762939446 L 60.70000076293945 -38.200000762939446 L 60.70000076293945 -30.899999618530266 L 68.0999984741211 -30.899999618530266 M 70.5999984741211 -38.200000762939446 L 70.5999984741211 -30.899999618530266 L 80.3030014038086 -30.899999618530266 L 80.3030014038086 -38.200000762939446 L 70.5999984741211 -38.200000762939446 M 58.20000076293945 -30.899999618530266 L 58.20000076293945 -38.200000762939446 L 51 -38.200000762939446 L 51 -30.899999618530266 L 58.20000076293945 -30.899999618530266 M 48.5 -30.899999618530266 L 48.5 -38.200000762939446 L 41 -38.200000762939446 L 41 -30.899999618530266 L 48.5 -30.899999618530266 M 38.5 -30.899999618530266 L 38.5 -38.200000762939446 L 31 -38.200000762939446 L 31 -30.899999618530266 L 38.5 -30.899999618530266 M 28.5 -30.899999618530266 L 28.5 -38.200000762939446 L 21 -38.200000762939446 L 21 -30.899999618530266 L 28.5 -30.899999618530266 M 18.5 -30.899999618530266 L 18.5 -38.200000762939446 L 11.399999618530273 -38.200000762939446 L 11.399999618530273 -30.899999618530266 L 18.5 -30.899999618530266 M 8.899999618530273 -30.899999618530266 L 8.899999618530273 -38.200000762939446 L 1.2999999523162842 -38.200000762939446 L 1.2999999523162842 -30.899999618530266 L 8.899999618530273 -30.899999618530266 M -1.2000000476837158 -30.899999618530266 L -1.2000000476837158 -38.200000762939446 L -8.5 -38.200000762939446 L -8.5 -30.899999618530266 L -1.2000000476837158 -30.899999618530266 M -11 -30.899999618530266 L -11 -38.200000762939446 L -18.600000381469727 -38.200000762939446 L -18.600000381469727 -30.899999618530266 L -11 -30.899999618530266 M -21.100000381469727 -30.899999618530266 L -21.100000381469727 -38.200000762939446 L -28.299999237060547 -38.200000762939446 L -28.299999237060547 -30.899999618530266 L -21.100000381469727 -30.899999618530266 M -30.799999237060547 -30.899999618530266 L -30.799999237060547 -38.200000762939446 L -38.099998474121094 -38.200000762939446 L -38.099998474121094 -30.899999618530266 L -30.799999237060547 -30.899999618530266 M -40.599998474121094 -30.899999618530266 L -40.599998474121094 -38.200000762939446 L -48 -38.200000762939446 L -48 -30.899999618530266 L -40.599998474121094 -30.899999618530266 M -50.5 -30.899999618530266 L -50.5 -38.200000762939446 L -58.20000076293945 -38.200000762939446 L -58.20000076293945 -30.899999618530266 L -50.5 -30.899999618530266 M -60.70000076293945 -30.899999618530266 L -60.70000076293945 -38.200000762939446 L -67.9000015258789 -38.200000762939446 L -67.9000015258789 -30.899999618530266 L -60.70000076293945 -30.899999618530266 M -70.4000015258789 -38.200000762939446 L -80.10299682617188 -38.200000762939446 L -80.10299682617188 -30.899999618530266 L -70.4000015258789 -30.899999618530266 L -70.4000015258789 -38.200000762939446 M 68.0999984741211 -40.700000762939446 L 68.0999984741211 -48.09999847412108 L 60.70000076293945 -48.09999847412108 L 60.70000076293945 -40.700000762939446 L 68.0999984741211 -40.700000762939446 M 70.5999984741211 -48.09999847412108 L 70.5999984741211 -40.700000762939446 L 80.3030014038086 -40.700000762939446 L 80.3030014038086 -48.09999847412108 L 70.5999984741211 -48.09999847412108 M 58.20000076293945 -40.700000762939446 L 58.20000076293945 -48.09999847412108 L 51 -48.09999847412108 L 51 -40.700000762939446 L 58.20000076293945 -40.700000762939446 M 48.5 -40.700000762939446 L 48.5 -48.09999847412108 L 41 -48.09999847412108 L 41 -40.700000762939446 L 48.5 -40.700000762939446 M 38.5 -40.700000762939446 L 38.5 -48.09999847412108 L 31 -48.09999847412108 L 31 -40.700000762939446 L 38.5 -40.700000762939446 M 28.5 -40.700000762939446 L 28.5 -48.09999847412108 L 21 -48.09999847412108 L 21 -40.700000762939446 L 28.5 -40.700000762939446 M 18.5 -40.700000762939446 L 18.5 -48.09999847412108 L 11.399999618530273 -48.09999847412108 L 11.399999618530273 -40.700000762939446 L 18.5 -40.700000762939446 M 8.899999618530273 -40.700000762939446 L 8.899999618530273 -48.09999847412108 L 1.2999999523162842 -48.09999847412108 L 1.2999999523162842 -40.700000762939446 L 8.899999618530273 -40.700000762939446 M -1.2000000476837158 -40.700000762939446 L -1.2000000476837158 -48.09999847412108 L -8.5 -48.09999847412108 L -8.5 -40.700000762939446 L -1.2000000476837158 -40.700000762939446 M -11 -40.700000762939446 L -11 -48.09999847412108 L -18.600000381469727 -48.09999847412108 L -18.600000381469727 -40.700000762939446 L -11 -40.700000762939446 M -21.100000381469727 -40.700000762939446 L -21.100000381469727 -48.09999847412108 L -28.299999237060547 -48.09999847412108 L -28.299999237060547 -40.700000762939446 L -21.100000381469727 -40.700000762939446 M -30.799999237060547 -40.700000762939446 L -30.799999237060547 -48.09999847412108 L -38.099998474121094 -48.09999847412108 L -38.099998474121094 -40.700000762939446 L -30.799999237060547 -40.700000762939446 M -40.599998474121094 -40.700000762939446 L -40.599998474121094 -48.09999847412108 L -48 -48.09999847412108 L -48 -40.700000762939446 L -40.599998474121094 -40.700000762939446 M -50.5 -40.700000762939446 L -50.5 -48.09999847412108 L -58.20000076293945 -48.09999847412108 L -58.20000076293945 -40.700000762939446 L -50.5 -40.700000762939446 M -60.70000076293945 -40.700000762939446 L -60.70000076293945 -48.09999847412108 L -67.9000015258789 -48.09999847412108 L -67.9000015258789 -40.700000762939446 L -60.70000076293945 -40.700000762939446 M -70.4000015258789 -48.09999847412108 L -80.10299682617188 -48.09999847412108 L -80.10299682617188 -40.700000762939446 L -70.4000015258789 -40.700000762939446 L -70.4000015258789 -48.09999847412108 M 68.0999984741211 -50.59999847412108 L 68.0999984741211 -58.29999923706053 L 60.70000076293945 -58.29999923706053 L 60.70000076293945 -50.59999847412108 L 68.0999984741211 -50.59999847412108 M 70.5999984741211 -58.29999923706053 L 70.5999984741211 -50.59999847412108 L 80.3030014038086 -50.59999847412108 L 80.3030014038086 -58.29999923706053 L 70.5999984741211 -58.29999923706053 M 58.20000076293945 -50.59999847412108 L 58.20000076293945 -58.29999923706053 L 51 -58.29999923706053 L 51 -50.59999847412108 L 58.20000076293945 -50.59999847412108 M 48.5 -50.59999847412108 L 48.5 -58.29999923706053 L 41 -58.29999923706053 L 41 -50.59999847412108 L 48.5 -50.59999847412108 M 38.5 -50.59999847412108 L 38.5 -58.29999923706053 L 31 -58.29999923706053 L 31 -50.59999847412108 L 38.5 -50.59999847412108 M 28.5 -50.59999847412108 L 28.5 -58.29999923706053 L 21 -58.29999923706053 L 21 -50.59999847412108 L 28.5 -50.59999847412108 M 18.5 -50.59999847412108 L 18.5 -58.29999923706053 L 11.399999618530273 -58.29999923706053 L 11.399999618530273 -50.59999847412108 L 18.5 -50.59999847412108 M 8.899999618530273 -50.59999847412108 L 8.899999618530273 -58.29999923706053 L 1.2999999523162842 -58.29999923706053 L 1.2999999523162842 -50.59999847412108 L 8.899999618530273 -50.59999847412108 M -1.2000000476837158 -50.59999847412108 L -1.2000000476837158 -58.29999923706053 L -8.5 -58.29999923706053 L -8.5 -50.59999847412108 L -1.2000000476837158 -50.59999847412108 M -11 -50.59999847412108 L -11 -58.29999923706053 L -18.600000381469727 -58.29999923706053 L -18.600000381469727 -50.59999847412108 L -11 -50.59999847412108 M -21.100000381469727 -50.59999847412108 L -21.100000381469727 -58.29999923706053 L -28.299999237060547 -58.29999923706053 L -28.299999237060547 -50.59999847412108 L -21.100000381469727 -50.59999847412108 M -30.799999237060547 -50.59999847412108 L -30.799999237060547 -58.29999923706053 L -38.099998474121094 -58.29999923706053 L -38.099998474121094 -50.59999847412108 L -30.799999237060547 -50.59999847412108 M -40.599998474121094 -50.59999847412108 L -40.599998474121094 -58.29999923706053 L -48 -58.29999923706053 L -48 -50.59999847412108 L -40.599998474121094 -50.59999847412108 M -50.5 -50.59999847412108 L -50.5 -58.29999923706053 L -58.20000076293945 -58.29999923706053 L -58.20000076293945 -50.59999847412108 L -50.5 -50.59999847412108 M -60.70000076293945 -50.59999847412108 L -60.70000076293945 -58.29999923706053 L -67.9000015258789 -58.29999923706053 L -67.9000015258789 -50.59999847412108 L -60.70000076293945 -50.59999847412108 M -70.4000015258789 -58.29999923706053 L -80.10299682617188 -58.29999923706053 L -80.10299682617188 -50.59999847412108 L -70.4000015258789 -50.59999847412108 L -70.4000015258789 -58.29999923706053 M 68.0999984741211 -60.79999923706053 L 68.0999984741211 -67.99999999999999 L 60.70000076293945 -67.99999999999999 L 60.70000076293945 -60.79999923706053 L 68.0999984741211 -60.79999923706053 M 70.5999984741211 -67.99999999999999 L 70.5999984741211 -60.79999923706053 L 80.3030014038086 -60.79999923706053 L 80.3030014038086 -67.99999999999999 L 70.5999984741211 -67.99999999999999 M 58.20000076293945 -60.79999923706053 L 58.20000076293945 -67.99999999999999 L 51 -67.99999999999999 L 51 -60.79999923706053 L 58.20000076293945 -60.79999923706053 M 48.5 -60.79999923706053 L 48.5 -67.99999999999999 L 41 -67.99999999999999 L 41 -60.79999923706053 L 48.5 -60.79999923706053 M 38.5 -60.79999923706053 L 38.5 -67.99999999999999 L 31 -67.99999999999999 L 31 -60.79999923706053 L 38.5 -60.79999923706053 M 28.5 -60.79999923706053 L 28.5 -67.99999999999999 L 21 -67.99999999999999 L 21 -60.79999923706053 L 28.5 -60.79999923706053 M 18.5 -60.79999923706053 L 18.5 -67.99999999999999 L 11.399999618530273 -67.99999999999999 L 11.399999618530273 -60.79999923706053 L 18.5 -60.79999923706053 M 8.899999618530273 -60.79999923706053 L 8.899999618530273 -67.99999999999999 L 1.2999999523162842 -67.99999999999999 L 1.2999999523162842 -60.79999923706053 L 8.899999618530273 -60.79999923706053 M -1.2000000476837158 -60.79999923706053 L -1.2000000476837158 -67.99999999999999 L -8.5 -67.99999999999999 L -8.5 -60.79999923706053 L -1.2000000476837158 -60.79999923706053 M -11 -60.79999923706053 L -11 -67.99999999999999 L -18.600000381469727 -67.99999999999999 L -18.600000381469727 -60.79999923706053 L -11 -60.79999923706053 M -21.100000381469727 -60.79999923706053 L -21.100000381469727 -67.99999999999999 L -28.299999237060547 -67.99999999999999 L -28.299999237060547 -60.79999923706053 L -21.100000381469727 -60.79999923706053 M -30.799999237060547 -60.79999923706053 L -30.799999237060547 -67.99999999999999 L -38.099998474121094 -67.99999999999999 L -38.099998474121094 -60.79999923706053 L -30.799999237060547 -60.79999923706053 M -40.599998474121094 -60.79999923706053 L -40.599998474121094 -67.99999999999999 L -48 -67.99999999999999 L -48 -60.79999923706053 L -40.599998474121094 -60.79999923706053 M -50.5 -60.79999923706053 L -50.5 -67.99999999999999 L -58.20000076293945 -67.99999999999999 L -58.20000076293945 -60.79999923706053 L -50.5 -60.79999923706053 M -60.70000076293945 -60.79999923706053 L -60.70000076293945 -67.99999999999999 L -67.9000015258789 -67.99999999999999 L -67.9000015258789 -60.79999923706053 L -60.70000076293945 -60.79999923706053 M -70.4000015258789 -67.99999999999999 L -80.10299682617188 -67.99999999999999 L -80.10299682617188 -60.79999923706053 L -70.4000015258789 -60.79999923706053 L -70.4000015258789 -67.99999999999999 M 68.0999984741211 -70.49999999999999 L 68.0999984741211 -80.10299682617186 L 60.70000076293945 -80.10299682617186 L 60.70000076293945 -70.49999999999999 L 68.0999984741211 -70.49999999999999 M 70.5999984741211 -80.10299682617186 L 70.5999984741211 -70.49999999999999 L 80.3030014038086 -70.49999999999999 L 80.3030014038086 -80.10299682617186 L 70.5999984741211 -80.10299682617186 M 58.20000076293945 -70.49999999999999 L 58.20000076293945 -80.10299682617186 L 51 -80.10299682617186 L 51 -70.49999999999999 L 58.20000076293945 -70.49999999999999 M 48.5 -70.49999999999999 L 48.5 -80.10299682617186 L 41 -80.10299682617186 L 41 -70.49999999999999 L 48.5 -70.49999999999999 M 38.5 -70.49999999999999 L 38.5 -80.10299682617186 L 31 -80.10299682617186 L 31 -70.49999999999999 L 38.5 -70.49999999999999 M 28.5 -70.49999999999999 L 28.5 -80.10299682617186 L 21 -80.10299682617186 L 21 -70.49999999999999 L 28.5 -70.49999999999999 M 18.5 -70.49999999999999 L 18.5 -80.10299682617186 L 11.399999618530273 -80.10299682617186 L 11.399999618530273 -70.49999999999999 L 18.5 -70.49999999999999 M 8.899999618530273 -70.49999999999999 L 8.899999618530273 -80.10299682617186 L 1.2999999523162842 -80.10299682617186 L 1.2999999523162842 -70.49999999999999 L 8.899999618530273 -70.49999999999999 M -1.2000000476837158 -70.49999999999999 L -1.2000000476837158 -80.10299682617186 L -8.5 -80.10299682617186 L -8.5 -70.49999999999999 L -1.2000000476837158 -70.49999999999999 M -11 -70.49999999999999 L -11 -80.10299682617186 L -18.600000381469727 -80.10299682617186 L -18.600000381469727 -70.49999999999999 L -11 -70.49999999999999 M -21.100000381469727 -70.49999999999999 L -21.100000381469727 -80.10299682617186 L -28.299999237060547 -80.10299682617186 L -28.299999237060547 -70.49999999999999 L -21.100000381469727 -70.49999999999999 M -30.799999237060547 -70.49999999999999 L -30.799999237060547 -80.10299682617186 L -38.099998474121094 -80.10299682617186 L -38.099998474121094 -70.49999999999999 L -30.799999237060547 -70.49999999999999 M -40.599998474121094 -70.49999999999999 L -40.599998474121094 -80.10299682617186 L -48 -80.10299682617186 L -48 -70.49999999999999 L -40.599998474121094 -70.49999999999999 M -50.5 -70.49999999999999 L -50.5 -80.10299682617186 L -58.20000076293945 -80.10299682617186 L -58.20000076293945 -70.49999999999999 L -50.5 -70.49999999999999 M -60.70000076293945 -70.49999999999999 L -60.70000076293945 -80.10299682617186 L -67.9000015258789 -80.10299682617186 L -67.9000015258789 -70.49999999999999 L -60.70000076293945 -70.49999999999999 M -70.4000015258789 -80.10299682617186 L -80.10299682617188 -80.10299682617186 L -80.10299682617188 -70.49999999999999 L -70.4000015258789 -70.49999999999999 L -70.4000015258789 -80.10299682617186 z" fill="none" stroke="rgb(255,0,0)" stroke-width="0.001mm" />
</svg>