<svg version="1.1" viewBox="0.0 0.0 947.7742782152231 471.46456692913387" fill="none" stroke="none" stroke-linecap="square" stroke-miterlimit="10" xmlns:xlink="http://www.w3.org/1999/xlink" xmlns="http://www.w3.org/2000/svg"><clipPath id="p.0"><path d="m0 0l947.7743 0l0 471.46457l-947.7743 0l0 -471.46457z" clip-rule="nonzero"/></clipPath><g clip-path="url(#p.0)"><path fill="#000000" fill-opacity="0.0" d="m0 0l947.7743 0l0 471.46457l-947.7743 0z" fill-rule="evenodd"/><path fill="#073763" d="m533.42163 5.7633486l411.10968 0l0 418.5757l-411.10968 0z" fill-rule="evenodd"/><path stroke="#000000" stroke-width="1.0" stroke-linejoin="round" stroke-linecap="butt" d="m533.42163 5.7633486l411.10968 0l0 418.5757l-411.10968 0z" fill-rule="evenodd"/><path fill="#ffe599" d="m556.13196 20.41659l11.616577 0l0 12.365606l-11.616577 0z" fill-rule="evenodd"/><path stroke="#000000" stroke-width="1.0" stroke-linejoin="round" stroke-linecap="butt" d="m556.13196 20.41659l11.616577 0l0 12.365606l-11.616577 0z" fill-rule="evenodd"/><path fill="#ffe599" d="m579.7368 20.41659l11.616516 0l0 12.365606l-11.616516 0z" fill-rule="evenodd"/><path stroke="#000000" stroke-width="1.0" stroke-linejoin="round" stroke-linecap="butt" d="m579.7368 20.41659l11.616516 0l0 12.365606l-11.616516 0z" fill-rule="evenodd"/><path fill="#ffe599" d="m603.3416 20.41659l11.616577 0l0 12.365606l-11.616577 0z" fill-rule="evenodd"/><path stroke="#000000" stroke-width="1.0" stroke-linejoin="round" stroke-linecap="butt" d="m603.3416 20.41659l11.616577 0l0 12.365606l-11.616577 0z" fill-rule="evenodd"/><path fill="#ffe599" d="m626.9465 20.41659l11.616577 0l0 12.365606l-11.616577 0z" fill-rule="evenodd"/><path stroke="#000000" stroke-width="1.0" stroke-linejoin="round" stroke-linecap="butt" d="m626.9465 20.41659l11.616577 0l0 12.365606l-11.616577 0z" fill-rule="evenodd"/><path fill="#ffe599" d="m650.55133 20.41659l11.616516 0l0 12.365606l-11.616516 0z" fill-rule="evenodd"/><path stroke="#000000" stroke-width="1.0" stroke-linejoin="round" stroke-linecap="butt" d="m650.55133 20.41659l11.616516 0l0 12.365606l-11.616516 0z" fill-rule="evenodd"/><path fill="#ffe599" d="m674.1561 20.41659l11.616577 0l0 12.365606l-11.616577 0z" fill-rule="evenodd"/><path stroke="#000000" stroke-width="1.0" stroke-linejoin="round" stroke-linecap="butt" d="m674.1561 20.41659l11.616577 0l0 12.365606l-11.616577 0z" fill-rule="evenodd"/><path fill="#ffe599" d="m697.761 20.41659l11.616516 0l0 12.365606l-11.616516 0z" fill-rule="evenodd"/><path stroke="#000000" stroke-width="1.0" stroke-linejoin="round" stroke-linecap="butt" d="m697.761 20.41659l11.616516 0l0 12.365606l-11.616516 0z" fill-rule="evenodd"/><path fill="#ffe599" d="m721.3658 20.41659l11.616577 0l0 12.365606l-11.616577 0z" fill-rule="evenodd"/><path stroke="#000000" stroke-width="1.0" stroke-linejoin="round" stroke-linecap="butt" d="m721.3658 20.41659l11.616577 0l0 12.365606l-11.616577 0z" fill-rule="evenodd"/><path fill="#ffe599" d="m744.97064 20.41659l11.616516 0l0 12.365606l-11.616516 0z" fill-rule="evenodd"/><path stroke="#000000" stroke-width="1.0" stroke-linejoin="round" stroke-linecap="butt" d="m744.97064 20.41659l11.616516 0l0 12.365606l-11.616516 0z" fill-rule="evenodd"/><path fill="#ffe599" d="m768.57544 20.41659l11.616577 0l0 12.365606l-11.616577 0z" fill-rule="evenodd"/><path stroke="#000000" stroke-width="1.0" stroke-linejoin="round" stroke-linecap="butt" d="m768.57544 20.41659l11.616577 0l0 12.365606l-11.616577 0z" fill-rule="evenodd"/><path fill="#ffe599" d="m792.1803 20.41659l11.616516 0l0 12.365606l-11.616516 0z" fill-rule="evenodd"/><path stroke="#000000" stroke-width="1.0" stroke-linejoin="round" stroke-linecap="butt" d="m792.1803 20.41659l11.616516 0l0 12.365606l-11.616516 0z" fill-rule="evenodd"/><path fill="#ffe599" d="m815.7851 20.41659l11.616577 0l0 12.365606l-11.616577 0z" fill-rule="evenodd"/><path stroke="#000000" stroke-width="1.0" stroke-linejoin="round" stroke-linecap="butt" d="m815.7851 20.41659l11.616577 0l0 12.365606l-11.616577 0z" fill-rule="evenodd"/><path fill="#ffe599" d="m839.38995 20.41659l11.616516 0l0 12.365606l-11.616516 0z" fill-rule="evenodd"/><path stroke="#000000" stroke-width="1.0" stroke-linejoin="round" stroke-linecap="butt" d="m839.38995 20.41659l11.616516 0l0 12.365606l-11.616516 0z" fill-rule="evenodd"/><path fill="#ffe599" d="m862.99475 20.41659l11.616577 0l0 12.365606l-11.616577 0z" fill-rule="evenodd"/><path stroke="#000000" stroke-width="1.0" stroke-linejoin="round" stroke-linecap="butt" d="m862.99475 20.41659l11.616577 0l0 12.365606l-11.616577 0z" fill-rule="evenodd"/><path fill="#ffe599" d="m886.5996 20.41659l11.616516 0l0 12.365606l-11.616516 0z" fill-rule="evenodd"/><path stroke="#000000" stroke-width="1.0" stroke-linejoin="round" stroke-linecap="butt" d="m886.5996 20.41659l11.616516 0l0 12.365606l-11.616516 0z" fill-rule="evenodd"/><path fill="#ffe599" d="m910.2044 20.41659l11.616577 0l0 12.365606l-11.616577 0z" fill-rule="evenodd"/><path stroke="#000000" stroke-width="1.0" stroke-linejoin="round" stroke-linecap="butt" d="m910.2044 20.41659l11.616577 0l0 12.365606l-11.616577 0z" fill-rule="evenodd"/><path fill="#ffe599" d="m556.13196 45.5435l11.616577 0l0 12.365604l-11.616577 0z" fill-rule="evenodd"/><path stroke="#000000" stroke-width="1.0" stroke-linejoin="round" stroke-linecap="butt" d="m556.13196 45.5435l11.616577 0l0 12.365604l-11.616577 0z" fill-rule="evenodd"/><path fill="#ffe599" d="m579.7368 45.5435l11.616516 0l0 12.365604l-11.616516 0z" fill-rule="evenodd"/><path stroke="#000000" stroke-width="1.0" stroke-linejoin="round" stroke-linecap="butt" d="m579.7368 45.5435l11.616516 0l0 12.365604l-11.616516 0z" fill-rule="evenodd"/><path fill="#ffe599" d="m603.3416 45.5435l11.616577 0l0 12.365604l-11.616577 0z" fill-rule="evenodd"/><path stroke="#000000" stroke-width="1.0" stroke-linejoin="round" stroke-linecap="butt" d="m603.3416 45.5435l11.616577 0l0 12.365604l-11.616577 0z" fill-rule="evenodd"/><path fill="#ffe599" d="m626.9465 45.5435l11.616577 0l0 12.365604l-11.616577 0z" fill-rule="evenodd"/><path stroke="#000000" stroke-width="1.0" stroke-linejoin="round" stroke-linecap="butt" d="m626.9465 45.5435l11.616577 0l0 12.365604l-11.616577 0z" fill-rule="evenodd"/><path fill="#ffe599" d="m650.55133 45.5435l11.616516 0l0 12.365604l-11.616516 0z" fill-rule="evenodd"/><path stroke="#000000" stroke-width="1.0" stroke-linejoin="round" stroke-linecap="butt" d="m650.55133 45.5435l11.616516 0l0 12.365604l-11.616516 0z" fill-rule="evenodd"/><path fill="#ffe599" d="m674.1561 45.5435l11.616577 0l0 12.365604l-11.616577 0z" fill-rule="evenodd"/><path stroke="#000000" stroke-width="1.0" stroke-linejoin="round" stroke-linecap="butt" d="m674.1561 45.5435l11.616577 0l0 12.365604l-11.616577 0z" fill-rule="evenodd"/><path fill="#ffe599" d="m697.761 45.5435l11.616516 0l0 12.365604l-11.616516 0z" fill-rule="evenodd"/><path stroke="#000000" stroke-width="1.0" stroke-linejoin="round" stroke-linecap="butt" d="m697.761 45.5435l11.616516 0l0 12.365604l-11.616516 0z" fill-rule="evenodd"/><path fill="#ffe599" d="m721.3658 45.5435l11.616577 0l0 12.365604l-11.616577 0z" fill-rule="evenodd"/><path stroke="#000000" stroke-width="1.0" stroke-linejoin="round" stroke-linecap="butt" d="m721.3658 45.5435l11.616577 0l0 12.365604l-11.616577 0z" fill-rule="evenodd"/><path fill="#ffe599" d="m744.97064 45.5435l11.616516 0l0 12.365604l-11.616516 0z" fill-rule="evenodd"/><path stroke="#000000" stroke-width="1.0" stroke-linejoin="round" stroke-linecap="butt" d="m744.97064 45.5435l11.616516 0l0 12.365604l-11.616516 0z" fill-rule="evenodd"/><path fill="#ffe599" d="m768.57544 45.5435l11.616577 0l0 12.365604l-11.616577 0z" fill-rule="evenodd"/><path stroke="#000000" stroke-width="1.0" stroke-linejoin="round" stroke-linecap="butt" d="m768.57544 45.5435l11.616577 0l0 12.365604l-11.616577 0z" fill-rule="evenodd"/><path fill="#ffe599" d="m792.1803 45.5435l11.616516 0l0 12.365604l-11.616516 0z" fill-rule="evenodd"/><path stroke="#000000" stroke-width="1.0" stroke-linejoin="round" stroke-linecap="butt" d="m792.1803 45.5435l11.616516 0l0 12.365604l-11.616516 0z" fill-rule="evenodd"/><path fill="#ffe599" d="m815.7851 45.5435l11.616577 0l0 12.365604l-11.616577 0z" fill-rule="evenodd"/><path stroke="#000000" stroke-width="1.0" stroke-linejoin="round" stroke-linecap="butt" d="m815.7851 45.5435l11.616577 0l0 12.365604l-11.616577 0z" fill-rule="evenodd"/><path fill="#ffe599" d="m839.38995 45.5435l11.616516 0l0 12.365604l-11.616516 0z" fill-rule="evenodd"/><path stroke="#000000" stroke-width="1.0" stroke-linejoin="round" stroke-linecap="butt" d="m839.38995 45.5435l11.616516 0l0 12.365604l-11.616516 0z" fill-rule="evenodd"/><path fill="#ffe599" d="m862.99475 45.5435l11.616577 0l0 12.365604l-11.616577 0z" fill-rule="evenodd"/><path stroke="#000000" stroke-width="1.0" stroke-linejoin="round" stroke-linecap="butt" d="m862.99475 45.5435l11.616577 0l0 12.365604l-11.616577 0z" fill-rule="evenodd"/><path fill="#ffe599" d="m886.5996 45.5435l11.616516 0l0 12.365604l-11.616516 0z" fill-rule="evenodd"/><path stroke="#000000" stroke-width="1.0" stroke-linejoin="round" stroke-linecap="butt" d="m886.5996 45.5435l11.616516 0l0 12.365604l-11.616516 0z" fill-rule="evenodd"/><path fill="#ffe599" d="m910.2044 45.5435l11.616577 0l0 12.365604l-11.616577 0z" fill-rule="evenodd"/><path stroke="#000000" stroke-width="1.0" stroke-linejoin="round" stroke-linecap="butt" d="m910.2044 45.5435l11.616577 0l0 12.365604l-11.616577 0z" fill-rule="evenodd"/><path fill="#ffe599" d="m556.13196 70.6704l11.616577 0l0 12.365608l-11.616577 0z" fill-rule="evenodd"/><path stroke="#000000" stroke-width="1.0" stroke-linejoin="round" stroke-linecap="butt" d="m556.13196 70.6704l11.616577 0l0 12.365608l-11.616577 0z" fill-rule="evenodd"/><path fill="#ffe599" d="m579.7368 70.6704l11.616516 0l0 12.365608l-11.616516 0z" fill-rule="evenodd"/><path stroke="#000000" stroke-width="1.0" stroke-linejoin="round" stroke-linecap="butt" d="m579.7368 70.6704l11.616516 0l0 12.365608l-11.616516 0z" fill-rule="evenodd"/><path fill="#ffe599" d="m603.3416 70.6704l11.616577 0l0 12.365608l-11.616577 0z" fill-rule="evenodd"/><path stroke="#000000" stroke-width="1.0" stroke-linejoin="round" stroke-linecap="butt" d="m603.3416 70.6704l11.616577 0l0 12.365608l-11.616577 0z" fill-rule="evenodd"/><path fill="#ffe599" d="m626.9465 70.6704l11.616577 0l0 12.365608l-11.616577 0z" fill-rule="evenodd"/><path stroke="#000000" stroke-width="1.0" stroke-linejoin="round" stroke-linecap="butt" d="m626.9465 70.6704l11.616577 0l0 12.365608l-11.616577 0z" fill-rule="evenodd"/><path fill="#ffe599" d="m650.55133 70.6704l11.616516 0l0 12.365608l-11.616516 0z" fill-rule="evenodd"/><path stroke="#000000" stroke-width="1.0" stroke-linejoin="round" stroke-linecap="butt" d="m650.55133 70.6704l11.616516 0l0 12.365608l-11.616516 0z" fill-rule="evenodd"/><path fill="#ffe599" d="m674.1561 70.6704l11.616577 0l0 12.365608l-11.616577 0z" fill-rule="evenodd"/><path stroke="#000000" stroke-width="1.0" stroke-linejoin="round" stroke-linecap="butt" d="m674.1561 70.6704l11.616577 0l0 12.365608l-11.616577 0z" fill-rule="evenodd"/><path fill="#ffe599" d="m697.761 70.6704l11.616516 0l0 12.365608l-11.616516 0z" fill-rule="evenodd"/><path stroke="#000000" stroke-width="1.0" stroke-linejoin="round" stroke-linecap="butt" d="m697.761 70.6704l11.616516 0l0 12.365608l-11.616516 0z" fill-rule="evenodd"/><path fill="#ffe599" d="m721.3658 70.6704l11.616577 0l0 12.365608l-11.616577 0z" fill-rule="evenodd"/><path stroke="#000000" stroke-width="1.0" stroke-linejoin="round" stroke-linecap="butt" d="m721.3658 70.6704l11.616577 0l0 12.365608l-11.616577 0z" fill-rule="evenodd"/><path fill="#ffe599" d="m744.97064 70.6704l11.616516 0l0 12.365608l-11.616516 0z" fill-rule="evenodd"/><path stroke="#000000" stroke-width="1.0" stroke-linejoin="round" stroke-linecap="butt" d="m744.97064 70.6704l11.616516 0l0 12.365608l-11.616516 0z" fill-rule="evenodd"/><path fill="#ffe599" d="m768.57544 70.6704l11.616577 0l0 12.365608l-11.616577 0z" fill-rule="evenodd"/><path stroke="#000000" stroke-width="1.0" stroke-linejoin="round" stroke-linecap="butt" d="m768.57544 70.6704l11.616577 0l0 12.365608l-11.616577 0z" fill-rule="evenodd"/><path fill="#ffe599" d="m792.1803 70.6704l11.616516 0l0 12.365608l-11.616516 0z" fill-rule="evenodd"/><path stroke="#000000" stroke-width="1.0" stroke-linejoin="round" stroke-linecap="butt" d="m792.1803 70.6704l11.616516 0l0 12.365608l-11.616516 0z" fill-rule="evenodd"/><path fill="#ffe599" d="m815.7851 70.6704l11.616577 0l0 12.365608l-11.616577 0z" fill-rule="evenodd"/><path stroke="#000000" stroke-width="1.0" stroke-linejoin="round" stroke-linecap="butt" d="m815.7851 70.6704l11.616577 0l0 12.365608l-11.616577 0z" fill-rule="evenodd"/><path fill="#ffe599" d="m839.38995 70.6704l11.616516 0l0 12.365608l-11.616516 0z" fill-rule="evenodd"/><path stroke="#000000" stroke-width="1.0" stroke-linejoin="round" stroke-linecap="butt" d="m839.38995 70.6704l11.616516 0l0 12.365608l-11.616516 0z" fill-rule="evenodd"/><path fill="#ffe599" d="m862.99475 70.6704l11.616577 0l0 12.365608l-11.616577 0z" fill-rule="evenodd"/><path stroke="#000000" stroke-width="1.0" stroke-linejoin="round" stroke-linecap="butt" d="m862.99475 70.6704l11.616577 0l0 12.365608l-11.616577 0z" fill-rule="evenodd"/><path fill="#ffe599" d="m886.5996 70.6704l11.616516 0l0 12.365608l-11.616516 0z" fill-rule="evenodd"/><path stroke="#000000" stroke-width="1.0" stroke-linejoin="round" stroke-linecap="butt" d="m886.5996 70.6704l11.616516 0l0 12.365608l-11.616516 0z" fill-rule="evenodd"/><path fill="#ffe599" d="m910.2044 70.6704l11.616577 0l0 12.365608l-11.616577 0z" fill-rule="evenodd"/><path stroke="#000000" stroke-width="1.0" stroke-linejoin="round" stroke-linecap="butt" d="m910.2044 70.6704l11.616577 0l0 12.365608l-11.616577 0z" fill-rule="evenodd"/><path fill="#ffe599" d="m556.13196 95.79732l11.616577 0l0 12.365601l-11.616577 0z" fill-rule="evenodd"/><path stroke="#000000" stroke-width="1.0" stroke-linejoin="round" stroke-linecap="butt" d="m556.13196 95.79732l11.616577 0l0 12.365601l-11.616577 0z" fill-rule="evenodd"/><path fill="#ffe599" d="m579.7368 95.79732l11.616516 0l0 12.365601l-11.616516 0z" fill-rule="evenodd"/><path stroke="#000000" stroke-width="1.0" stroke-linejoin="round" stroke-linecap="butt" d="m579.7368 95.79732l11.616516 0l0 12.365601l-11.616516 0z" fill-rule="evenodd"/><path fill="#ffe599" d="m603.3416 95.79732l11.616577 0l0 12.365601l-11.616577 0z" fill-rule="evenodd"/><path stroke="#000000" stroke-width="1.0" stroke-linejoin="round" stroke-linecap="butt" d="m603.3416 95.79732l11.616577 0l0 12.365601l-11.616577 0z" fill-rule="evenodd"/><path fill="#ffe599" d="m626.9465 95.79732l11.616577 0l0 12.365601l-11.616577 0z" fill-rule="evenodd"/><path stroke="#000000" stroke-width="1.0" stroke-linejoin="round" stroke-linecap="butt" d="m626.9465 95.79732l11.616577 0l0 12.365601l-11.616577 0z" fill-rule="evenodd"/><path fill="#ffe599" d="m650.55133 95.79732l11.616516 0l0 12.365601l-11.616516 0z" fill-rule="evenodd"/><path stroke="#000000" stroke-width="1.0" stroke-linejoin="round" stroke-linecap="butt" d="m650.55133 95.79732l11.616516 0l0 12.365601l-11.616516 0z" fill-rule="evenodd"/><path fill="#ffe599" d="m674.1561 95.79732l11.616577 0l0 12.365601l-11.616577 0z" fill-rule="evenodd"/><path stroke="#000000" stroke-width="1.0" stroke-linejoin="round" stroke-linecap="butt" d="m674.1561 95.79732l11.616577 0l0 12.365601l-11.616577 0z" fill-rule="evenodd"/><path fill="#ffe599" d="m697.761 95.79732l11.616516 0l0 12.365601l-11.616516 0z" fill-rule="evenodd"/><path stroke="#000000" stroke-width="1.0" stroke-linejoin="round" stroke-linecap="butt" d="m697.761 95.79732l11.616516 0l0 12.365601l-11.616516 0z" fill-rule="evenodd"/><path fill="#ffe599" d="m721.3658 95.79732l11.616577 0l0 12.365601l-11.616577 0z" fill-rule="evenodd"/><path stroke="#000000" stroke-width="1.0" stroke-linejoin="round" stroke-linecap="butt" d="m721.3658 95.79732l11.616577 0l0 12.365601l-11.616577 0z" fill-rule="evenodd"/><path fill="#ffe599" d="m744.97064 95.79732l11.616516 0l0 12.365601l-11.616516 0z" fill-rule="evenodd"/><path stroke="#000000" stroke-width="1.0" stroke-linejoin="round" stroke-linecap="butt" d="m744.97064 95.79732l11.616516 0l0 12.365601l-11.616516 0z" fill-rule="evenodd"/><path fill="#ffe599" d="m768.57544 95.79732l11.616577 0l0 12.365601l-11.616577 0z" fill-rule="evenodd"/><path stroke="#000000" stroke-width="1.0" stroke-linejoin="round" stroke-linecap="butt" d="m768.57544 95.79732l11.616577 0l0 12.365601l-11.616577 0z" fill-rule="evenodd"/><path fill="#ffe599" d="m792.1803 95.79732l11.616516 0l0 12.365601l-11.616516 0z" fill-rule="evenodd"/><path stroke="#000000" stroke-width="1.0" stroke-linejoin="round" stroke-linecap="butt" d="m792.1803 95.79732l11.616516 0l0 12.365601l-11.616516 0z" fill-rule="evenodd"/><path fill="#ffe599" d="m815.7851 95.79732l11.616577 0l0 12.365601l-11.616577 0z" fill-rule="evenodd"/><path stroke="#000000" stroke-width="1.0" stroke-linejoin="round" stroke-linecap="butt" d="m815.7851 95.79732l11.616577 0l0 12.365601l-11.616577 0z" fill-rule="evenodd"/><path fill="#ffe599" d="m839.38995 95.79732l11.616516 0l0 12.365601l-11.616516 0z" fill-rule="evenodd"/><path stroke="#000000" stroke-width="1.0" stroke-linejoin="round" stroke-linecap="butt" d="m839.38995 95.79732l11.616516 0l0 12.365601l-11.616516 0z" fill-rule="evenodd"/><path fill="#ffe599" d="m862.99475 95.79732l11.616577 0l0 12.365601l-11.616577 0z" fill-rule="evenodd"/><path stroke="#000000" stroke-width="1.0" stroke-linejoin="round" stroke-linecap="butt" d="m862.99475 95.79732l11.616577 0l0 12.365601l-11.616577 0z" fill-rule="evenodd"/><path fill="#ffe599" d="m886.5996 95.79732l11.616516 0l0 12.365601l-11.616516 0z" fill-rule="evenodd"/><path stroke="#000000" stroke-width="1.0" stroke-linejoin="round" stroke-linecap="butt" d="m886.5996 95.79732l11.616516 0l0 12.365601l-11.616516 0z" fill-rule="evenodd"/><path fill="#ffe599" d="m910.2044 95.79732l11.616577 0l0 12.365601l-11.616577 0z" fill-rule="evenodd"/><path stroke="#000000" stroke-width="1.0" stroke-linejoin="round" stroke-linecap="butt" d="m910.2044 95.79732l11.616577 0l0 12.365601l-11.616577 0z" fill-rule="evenodd"/><path fill="#ffe599" d="m556.13196 120.924225l11.616577 0l0 12.365601l-11.616577 0z" fill-rule="evenodd"/><path stroke="#000000" stroke-width="1.0" stroke-linejoin="round" stroke-linecap="butt" d="m556.13196 120.924225l11.616577 0l0 12.365601l-11.616577 0z" fill-rule="evenodd"/><path fill="#ffe599" d="m579.7368 120.924225l11.616516 0l0 12.365601l-11.616516 0z" fill-rule="evenodd"/><path stroke="#000000" stroke-width="1.0" stroke-linejoin="round" stroke-linecap="butt" d="m579.7368 120.924225l11.616516 0l0 12.365601l-11.616516 0z" fill-rule="evenodd"/><path fill="#ffe599" d="m603.3416 120.924225l11.616577 0l0 12.365601l-11.616577 0z" fill-rule="evenodd"/><path stroke="#000000" stroke-width="1.0" stroke-linejoin="round" stroke-linecap="butt" d="m603.3416 120.924225l11.616577 0l0 12.365601l-11.616577 0z" fill-rule="evenodd"/><path fill="#ffe599" d="m626.9465 120.924225l11.616577 0l0 12.365601l-11.616577 0z" fill-rule="evenodd"/><path stroke="#000000" stroke-width="1.0" stroke-linejoin="round" stroke-linecap="butt" d="m626.9465 120.924225l11.616577 0l0 12.365601l-11.616577 0z" fill-rule="evenodd"/><path fill="#ffe599" d="m650.55133 120.924225l11.616516 0l0 12.365601l-11.616516 0z" fill-rule="evenodd"/><path stroke="#000000" stroke-width="1.0" stroke-linejoin="round" stroke-linecap="butt" d="m650.55133 120.924225l11.616516 0l0 12.365601l-11.616516 0z" fill-rule="evenodd"/><path fill="#ffe599" d="m674.1561 120.924225l11.616577 0l0 12.365601l-11.616577 0z" fill-rule="evenodd"/><path stroke="#000000" stroke-width="1.0" stroke-linejoin="round" stroke-linecap="butt" d="m674.1561 120.924225l11.616577 0l0 12.365601l-11.616577 0z" fill-rule="evenodd"/><path fill="#ffe599" d="m697.761 120.924225l11.616516 0l0 12.365601l-11.616516 0z" fill-rule="evenodd"/><path stroke="#000000" stroke-width="1.0" stroke-linejoin="round" stroke-linecap="butt" d="m697.761 120.924225l11.616516 0l0 12.365601l-11.616516 0z" fill-rule="evenodd"/><path fill="#ffe599" d="m721.3658 120.924225l11.616577 0l0 12.365601l-11.616577 0z" fill-rule="evenodd"/><path stroke="#000000" stroke-width="1.0" stroke-linejoin="round" stroke-linecap="butt" d="m721.3658 120.924225l11.616577 0l0 12.365601l-11.616577 0z" fill-rule="evenodd"/><path fill="#ffe599" d="m744.97064 120.924225l11.616516 0l0 12.365601l-11.616516 0z" fill-rule="evenodd"/><path stroke="#000000" stroke-width="1.0" stroke-linejoin="round" stroke-linecap="butt" d="m744.97064 120.924225l11.616516 0l0 12.365601l-11.616516 0z" fill-rule="evenodd"/><path fill="#ffe599" d="m768.57544 120.924225l11.616577 0l0 12.365601l-11.616577 0z" fill-rule="evenodd"/><path stroke="#000000" stroke-width="1.0" stroke-linejoin="round" stroke-linecap="butt" d="m768.57544 120.924225l11.616577 0l0 12.365601l-11.616577 0z" fill-rule="evenodd"/><path fill="#ffe599" d="m792.1803 120.924225l11.616516 0l0 12.365601l-11.616516 0z" fill-rule="evenodd"/><path stroke="#000000" stroke-width="1.0" stroke-linejoin="round" stroke-linecap="butt" d="m792.1803 120.924225l11.616516 0l0 12.365601l-11.616516 0z" fill-rule="evenodd"/><path fill="#ffe599" d="m815.7851 120.924225l11.616577 0l0 12.365601l-11.616577 0z" fill-rule="evenodd"/><path stroke="#000000" stroke-width="1.0" stroke-linejoin="round" stroke-linecap="butt" d="m815.7851 120.924225l11.616577 0l0 12.365601l-11.616577 0z" fill-rule="evenodd"/><path fill="#ffe599" d="m839.38995 120.924225l11.616516 0l0 12.365601l-11.616516 0z" fill-rule="evenodd"/><path stroke="#000000" stroke-width="1.0" stroke-linejoin="round" stroke-linecap="butt" d="m839.38995 120.924225l11.616516 0l0 12.365601l-11.616516 0z" fill-rule="evenodd"/><path fill="#ffe599" d="m862.99475 120.924225l11.616577 0l0 12.365601l-11.616577 0z" fill-rule="evenodd"/><path stroke="#000000" stroke-width="1.0" stroke-linejoin="round" stroke-linecap="butt" d="m862.99475 120.924225l11.616577 0l0 12.365601l-11.616577 0z" fill-rule="evenodd"/><path fill="#ffe599" d="m886.5996 120.924225l11.616516 0l0 12.365601l-11.616516 0z" fill-rule="evenodd"/><path stroke="#000000" stroke-width="1.0" stroke-linejoin="round" stroke-linecap="butt" d="m886.5996 120.924225l11.616516 0l0 12.365601l-11.616516 0z" fill-rule="evenodd"/><path fill="#ffe599" d="m910.2044 120.924225l11.616577 0l0 12.365601l-11.616577 0z" fill-rule="evenodd"/><path stroke="#000000" stroke-width="1.0" stroke-linejoin="round" stroke-linecap="butt" d="m910.2044 120.924225l11.616577 0l0 12.365601l-11.616577 0z" fill-rule="evenodd"/><path fill="#ffe599" d="m556.13196 146.05113l11.616577 0l0 12.365601l-11.616577 0z" fill-rule="evenodd"/><path stroke="#000000" stroke-width="1.0" stroke-linejoin="round" stroke-linecap="butt" d="m556.13196 146.05113l11.616577 0l0 12.365601l-11.616577 0z" fill-rule="evenodd"/><path fill="#ffe599" d="m579.7368 146.05113l11.616516 0l0 12.365601l-11.616516 0z" fill-rule="evenodd"/><path stroke="#000000" stroke-width="1.0" stroke-linejoin="round" stroke-linecap="butt" d="m579.7368 146.05113l11.616516 0l0 12.365601l-11.616516 0z" fill-rule="evenodd"/><path fill="#ffe599" d="m603.3416 146.05113l11.616577 0l0 12.365601l-11.616577 0z" fill-rule="evenodd"/><path stroke="#000000" stroke-width="1.0" stroke-linejoin="round" stroke-linecap="butt" d="m603.3416 146.05113l11.616577 0l0 12.365601l-11.616577 0z" fill-rule="evenodd"/><path fill="#ffe599" d="m626.9465 146.05113l11.616577 0l0 12.365601l-11.616577 0z" fill-rule="evenodd"/><path stroke="#000000" stroke-width="1.0" stroke-linejoin="round" stroke-linecap="butt" d="m626.9465 146.05113l11.616577 0l0 12.365601l-11.616577 0z" fill-rule="evenodd"/><path fill="#ffe599" d="m650.55133 146.05113l11.616516 0l0 12.365601l-11.616516 0z" fill-rule="evenodd"/><path stroke="#000000" stroke-width="1.0" stroke-linejoin="round" stroke-linecap="butt" d="m650.55133 146.05113l11.616516 0l0 12.365601l-11.616516 0z" fill-rule="evenodd"/><path fill="#ffe599" d="m674.1561 146.05113l11.616577 0l0 12.365601l-11.616577 0z" fill-rule="evenodd"/><path stroke="#000000" stroke-width="1.0" stroke-linejoin="round" stroke-linecap="butt" d="m674.1561 146.05113l11.616577 0l0 12.365601l-11.616577 0z" fill-rule="evenodd"/><path fill="#ffe599" d="m697.761 146.05113l11.616516 0l0 12.365601l-11.616516 0z" fill-rule="evenodd"/><path stroke="#000000" stroke-width="1.0" stroke-linejoin="round" stroke-linecap="butt" d="m697.761 146.05113l11.616516 0l0 12.365601l-11.616516 0z" fill-rule="evenodd"/><path fill="#ffe599" d="m721.3658 146.05113l11.616577 0l0 12.365601l-11.616577 0z" fill-rule="evenodd"/><path stroke="#000000" stroke-width="1.0" stroke-linejoin="round" stroke-linecap="butt" d="m721.3658 146.05113l11.616577 0l0 12.365601l-11.616577 0z" fill-rule="evenodd"/><path fill="#ffe599" d="m744.97064 146.05113l11.616516 0l0 12.365601l-11.616516 0z" fill-rule="evenodd"/><path stroke="#000000" stroke-width="1.0" stroke-linejoin="round" stroke-linecap="butt" d="m744.97064 146.05113l11.616516 0l0 12.365601l-11.616516 0z" fill-rule="evenodd"/><path fill="#ffe599" d="m768.57544 146.05113l11.616577 0l0 12.365601l-11.616577 0z" fill-rule="evenodd"/><path stroke="#000000" stroke-width="1.0" stroke-linejoin="round" stroke-linecap="butt" d="m768.57544 146.05113l11.616577 0l0 12.365601l-11.616577 0z" fill-rule="evenodd"/><path fill="#ffe599" d="m792.1803 146.05113l11.616516 0l0 12.365601l-11.616516 0z" fill-rule="evenodd"/><path stroke="#000000" stroke-width="1.0" stroke-linejoin="round" stroke-linecap="butt" d="m792.1803 146.05113l11.616516 0l0 12.365601l-11.616516 0z" fill-rule="evenodd"/><path fill="#ffe599" d="m815.7851 146.05113l11.616577 0l0 12.365601l-11.616577 0z" fill-rule="evenodd"/><path stroke="#000000" stroke-width="1.0" stroke-linejoin="round" stroke-linecap="butt" d="m815.7851 146.05113l11.616577 0l0 12.365601l-11.616577 0z" fill-rule="evenodd"/><path fill="#ffe599" d="m839.38995 146.05113l11.616516 0l0 12.365601l-11.616516 0z" fill-rule="evenodd"/><path stroke="#000000" stroke-width="1.0" stroke-linejoin="round" stroke-linecap="butt" d="m839.38995 146.05113l11.616516 0l0 12.365601l-11.616516 0z" fill-rule="evenodd"/><path fill="#ffe599" d="m862.99475 146.05113l11.616577 0l0 12.365601l-11.616577 0z" fill-rule="evenodd"/><path stroke="#000000" stroke-width="1.0" stroke-linejoin="round" stroke-linecap="butt" d="m862.99475 146.05113l11.616577 0l0 12.365601l-11.616577 0z" fill-rule="evenodd"/><path fill="#ffe599" d="m886.5996 146.05113l11.616516 0l0 12.365601l-11.616516 0z" fill-rule="evenodd"/><path stroke="#000000" stroke-width="1.0" stroke-linejoin="round" stroke-linecap="butt" d="m886.5996 146.05113l11.616516 0l0 12.365601l-11.616516 0z" fill-rule="evenodd"/><path fill="#ffe599" d="m910.2044 146.05113l11.616577 0l0 12.365601l-11.616577 0z" fill-rule="evenodd"/><path stroke="#000000" stroke-width="1.0" stroke-linejoin="round" stroke-linecap="butt" d="m910.2044 146.05113l11.616577 0l0 12.365601l-11.616577 0z" fill-rule="evenodd"/><path fill="#ffe599" d="m556.13196 171.17804l11.616577 0l0 12.365601l-11.616577 0z" fill-rule="evenodd"/><path stroke="#000000" stroke-width="1.0" stroke-linejoin="round" stroke-linecap="butt" d="m556.13196 171.17804l11.616577 0l0 12.365601l-11.616577 0z" fill-rule="evenodd"/><path fill="#ffe599" d="m579.7368 171.17804l11.616516 0l0 12.365601l-11.616516 0z" fill-rule="evenodd"/><path stroke="#000000" stroke-width="1.0" stroke-linejoin="round" stroke-linecap="butt" d="m579.7368 171.17804l11.616516 0l0 12.365601l-11.616516 0z" fill-rule="evenodd"/><path fill="#ffe599" d="m603.3416 171.17804l11.616577 0l0 12.365601l-11.616577 0z" fill-rule="evenodd"/><path stroke="#000000" stroke-width="1.0" stroke-linejoin="round" stroke-linecap="butt" d="m603.3416 171.17804l11.616577 0l0 12.365601l-11.616577 0z" fill-rule="evenodd"/><path fill="#ffe599" d="m626.9465 171.17804l11.616577 0l0 12.365601l-11.616577 0z" fill-rule="evenodd"/><path stroke="#000000" stroke-width="1.0" stroke-linejoin="round" stroke-linecap="butt" d="m626.9465 171.17804l11.616577 0l0 12.365601l-11.616577 0z" fill-rule="evenodd"/><path fill="#ffe599" d="m650.55133 171.17804l11.616516 0l0 12.365601l-11.616516 0z" fill-rule="evenodd"/><path stroke="#000000" stroke-width="1.0" stroke-linejoin="round" stroke-linecap="butt" d="m650.55133 171.17804l11.616516 0l0 12.365601l-11.616516 0z" fill-rule="evenodd"/><path fill="#ffe599" d="m674.1561 171.17804l11.616577 0l0 12.365601l-11.616577 0z" fill-rule="evenodd"/><path stroke="#000000" stroke-width="1.0" stroke-linejoin="round" stroke-linecap="butt" d="m674.1561 171.17804l11.616577 0l0 12.365601l-11.616577 0z" fill-rule="evenodd"/><path fill="#ffe599" d="m697.761 171.17804l11.616516 0l0 12.365601l-11.616516 0z" fill-rule="evenodd"/><path stroke="#000000" stroke-width="1.0" stroke-linejoin="round" stroke-linecap="butt" d="m697.761 171.17804l11.616516 0l0 12.365601l-11.616516 0z" fill-rule="evenodd"/><path fill="#ffe599" d="m721.3658 171.17804l11.616577 0l0 12.365601l-11.616577 0z" fill-rule="evenodd"/><path stroke="#000000" stroke-width="1.0" stroke-linejoin="round" stroke-linecap="butt" d="m721.3658 171.17804l11.616577 0l0 12.365601l-11.616577 0z" fill-rule="evenodd"/><path fill="#ffe599" d="m744.97064 171.17804l11.616516 0l0 12.365601l-11.616516 0z" fill-rule="evenodd"/><path stroke="#000000" stroke-width="1.0" stroke-linejoin="round" stroke-linecap="butt" d="m744.97064 171.17804l11.616516 0l0 12.365601l-11.616516 0z" fill-rule="evenodd"/><path fill="#ffe599" d="m768.57544 171.17804l11.616577 0l0 12.365601l-11.616577 0z" fill-rule="evenodd"/><path stroke="#000000" stroke-width="1.0" stroke-linejoin="round" stroke-linecap="butt" d="m768.57544 171.17804l11.616577 0l0 12.365601l-11.616577 0z" fill-rule="evenodd"/><path fill="#ffe599" d="m792.1803 171.17804l11.616516 0l0 12.365601l-11.616516 0z" fill-rule="evenodd"/><path stroke="#000000" stroke-width="1.0" stroke-linejoin="round" stroke-linecap="butt" d="m792.1803 171.17804l11.616516 0l0 12.365601l-11.616516 0z" fill-rule="evenodd"/><path fill="#ffe599" d="m815.7851 171.17804l11.616577 0l0 12.365601l-11.616577 0z" fill-rule="evenodd"/><path stroke="#000000" stroke-width="1.0" stroke-linejoin="round" stroke-linecap="butt" d="m815.7851 171.17804l11.616577 0l0 12.365601l-11.616577 0z" fill-rule="evenodd"/><path fill="#ffe599" d="m839.38995 171.17804l11.616516 0l0 12.365601l-11.616516 0z" fill-rule="evenodd"/><path stroke="#000000" stroke-width="1.0" stroke-linejoin="round" stroke-linecap="butt" d="m839.38995 171.17804l11.616516 0l0 12.365601l-11.616516 0z" fill-rule="evenodd"/><path fill="#ffe599" d="m862.99475 171.17804l11.616577 0l0 12.365601l-11.616577 0z" fill-rule="evenodd"/><path stroke="#000000" stroke-width="1.0" stroke-linejoin="round" stroke-linecap="butt" d="m862.99475 171.17804l11.616577 0l0 12.365601l-11.616577 0z" fill-rule="evenodd"/><path fill="#ffe599" d="m886.5996 171.17804l11.616516 0l0 12.365601l-11.616516 0z" fill-rule="evenodd"/><path stroke="#000000" stroke-width="1.0" stroke-linejoin="round" stroke-linecap="butt" d="m886.5996 171.17804l11.616516 0l0 12.365601l-11.616516 0z" fill-rule="evenodd"/><path fill="#ffe599" d="m910.2044 171.17804l11.616577 0l0 12.365601l-11.616577 0z" fill-rule="evenodd"/><path stroke="#000000" stroke-width="1.0" stroke-linejoin="round" stroke-linecap="butt" d="m910.2044 171.17804l11.616577 0l0 12.365601l-11.616577 0z" fill-rule="evenodd"/><path fill="#ffe599" d="m556.13196 196.30495l11.616577 0l0 12.365601l-11.616577 0z" fill-rule="evenodd"/><path stroke="#000000" stroke-width="1.0" stroke-linejoin="round" stroke-linecap="butt" d="m556.13196 196.30495l11.616577 0l0 12.365601l-11.616577 0z" fill-rule="evenodd"/><path fill="#ffe599" d="m579.7368 196.30495l11.616516 0l0 12.365601l-11.616516 0z" fill-rule="evenodd"/><path stroke="#000000" stroke-width="1.0" stroke-linejoin="round" stroke-linecap="butt" d="m579.7368 196.30495l11.616516 0l0 12.365601l-11.616516 0z" fill-rule="evenodd"/><path fill="#ffe599" d="m603.3416 196.30495l11.616577 0l0 12.365601l-11.616577 0z" fill-rule="evenodd"/><path stroke="#000000" stroke-width="1.0" stroke-linejoin="round" stroke-linecap="butt" d="m603.3416 196.30495l11.616577 0l0 12.365601l-11.616577 0z" fill-rule="evenodd"/><path fill="#ffe599" d="m626.9465 196.30495l11.616577 0l0 12.365601l-11.616577 0z" fill-rule="evenodd"/><path stroke="#000000" stroke-width="1.0" stroke-linejoin="round" stroke-linecap="butt" d="m626.9465 196.30495l11.616577 0l0 12.365601l-11.616577 0z" fill-rule="evenodd"/><path fill="#ffe599" d="m650.55133 196.30495l11.616516 0l0 12.365601l-11.616516 0z" fill-rule="evenodd"/><path stroke="#000000" stroke-width="1.0" stroke-linejoin="round" stroke-linecap="butt" d="m650.55133 196.30495l11.616516 0l0 12.365601l-11.616516 0z" fill-rule="evenodd"/><path fill="#ffe599" d="m674.1561 196.30495l11.616577 0l0 12.365601l-11.616577 0z" fill-rule="evenodd"/><path stroke="#000000" stroke-width="1.0" stroke-linejoin="round" stroke-linecap="butt" d="m674.1561 196.30495l11.616577 0l0 12.365601l-11.616577 0z" fill-rule="evenodd"/><path fill="#ffe599" d="m697.761 196.30495l11.616516 0l0 12.365601l-11.616516 0z" fill-rule="evenodd"/><path stroke="#000000" stroke-width="1.0" stroke-linejoin="round" stroke-linecap="butt" d="m697.761 196.30495l11.616516 0l0 12.365601l-11.616516 0z" fill-rule="evenodd"/><path fill="#ffe599" d="m721.3658 196.30495l11.616577 0l0 12.365601l-11.616577 0z" fill-rule="evenodd"/><path stroke="#000000" stroke-width="1.0" stroke-linejoin="round" stroke-linecap="butt" d="m721.3658 196.30495l11.616577 0l0 12.365601l-11.616577 0z" fill-rule="evenodd"/><path fill="#ffe599" d="m744.97064 196.30495l11.616516 0l0 12.365601l-11.616516 0z" fill-rule="evenodd"/><path stroke="#000000" stroke-width="1.0" stroke-linejoin="round" stroke-linecap="butt" d="m744.97064 196.30495l11.616516 0l0 12.365601l-11.616516 0z" fill-rule="evenodd"/><path fill="#ffe599" d="m768.57544 196.30495l11.616577 0l0 12.365601l-11.616577 0z" fill-rule="evenodd"/><path stroke="#000000" stroke-width="1.0" stroke-linejoin="round" stroke-linecap="butt" d="m768.57544 196.30495l11.616577 0l0 12.365601l-11.616577 0z" fill-rule="evenodd"/><path fill="#ffe599" d="m792.1803 196.30495l11.616516 0l0 12.365601l-11.616516 0z" fill-rule="evenodd"/><path stroke="#000000" stroke-width="1.0" stroke-linejoin="round" stroke-linecap="butt" d="m792.1803 196.30495l11.616516 0l0 12.365601l-11.616516 0z" fill-rule="evenodd"/><path fill="#ffe599" d="m815.7851 196.30495l11.616577 0l0 12.365601l-11.616577 0z" fill-rule="evenodd"/><path stroke="#000000" stroke-width="1.0" stroke-linejoin="round" stroke-linecap="butt" d="m815.7851 196.30495l11.616577 0l0 12.365601l-11.616577 0z" fill-rule="evenodd"/><path fill="#ffe599" d="m839.38995 196.30495l11.616516 0l0 12.365601l-11.616516 0z" fill-rule="evenodd"/><path stroke="#000000" stroke-width="1.0" stroke-linejoin="round" stroke-linecap="butt" d="m839.38995 196.30495l11.616516 0l0 12.365601l-11.616516 0z" fill-rule="evenodd"/><path fill="#ffe599" d="m862.99475 196.30495l11.616577 0l0 12.365601l-11.616577 0z" fill-rule="evenodd"/><path stroke="#000000" stroke-width="1.0" stroke-linejoin="round" stroke-linecap="butt" d="m862.99475 196.30495l11.616577 0l0 12.365601l-11.616577 0z" fill-rule="evenodd"/><path fill="#ffe599" d="m886.5996 196.30495l11.616516 0l0 12.365601l-11.616516 0z" fill-rule="evenodd"/><path stroke="#000000" stroke-width="1.0" stroke-linejoin="round" stroke-linecap="butt" d="m886.5996 196.30495l11.616516 0l0 12.365601l-11.616516 0z" fill-rule="evenodd"/><path fill="#ffe599" d="m910.2044 196.30495l11.616577 0l0 12.365601l-11.616577 0z" fill-rule="evenodd"/><path stroke="#000000" stroke-width="1.0" stroke-linejoin="round" stroke-linecap="butt" d="m910.2044 196.30495l11.616577 0l0 12.365601l-11.616577 0z" fill-rule="evenodd"/><path fill="#ffe599" d="m556.13196 221.43185l11.616577 0l0 12.365601l-11.616577 0z" fill-rule="evenodd"/><path stroke="#000000" stroke-width="1.0" stroke-linejoin="round" stroke-linecap="butt" d="m556.13196 221.43185l11.616577 0l0 12.365601l-11.616577 0z" fill-rule="evenodd"/><path fill="#ffe599" d="m579.7368 221.43185l11.616516 0l0 12.365601l-11.616516 0z" fill-rule="evenodd"/><path stroke="#000000" stroke-width="1.0" stroke-linejoin="round" stroke-linecap="butt" d="m579.7368 221.43185l11.616516 0l0 12.365601l-11.616516 0z" fill-rule="evenodd"/><path fill="#ffe599" d="m603.3416 221.43185l11.616577 0l0 12.365601l-11.616577 0z" fill-rule="evenodd"/><path stroke="#000000" stroke-width="1.0" stroke-linejoin="round" stroke-linecap="butt" d="m603.3416 221.43185l11.616577 0l0 12.365601l-11.616577 0z" fill-rule="evenodd"/><path fill="#ffe599" d="m626.9465 221.43185l11.616577 0l0 12.365601l-11.616577 0z" fill-rule="evenodd"/><path stroke="#000000" stroke-width="1.0" stroke-linejoin="round" stroke-linecap="butt" d="m626.9465 221.43185l11.616577 0l0 12.365601l-11.616577 0z" fill-rule="evenodd"/><path fill="#ffe599" d="m650.55133 221.43185l11.616516 0l0 12.365601l-11.616516 0z" fill-rule="evenodd"/><path stroke="#000000" stroke-width="1.0" stroke-linejoin="round" stroke-linecap="butt" d="m650.55133 221.43185l11.616516 0l0 12.365601l-11.616516 0z" fill-rule="evenodd"/><path fill="#ffe599" d="m674.1561 221.43185l11.616577 0l0 12.365601l-11.616577 0z" fill-rule="evenodd"/><path stroke="#000000" stroke-width="1.0" stroke-linejoin="round" stroke-linecap="butt" d="m674.1561 221.43185l11.616577 0l0 12.365601l-11.616577 0z" fill-rule="evenodd"/><path fill="#ffe599" d="m697.761 221.43185l11.616516 0l0 12.365601l-11.616516 0z" fill-rule="evenodd"/><path stroke="#000000" stroke-width="1.0" stroke-linejoin="round" stroke-linecap="butt" d="m697.761 221.43185l11.616516 0l0 12.365601l-11.616516 0z" fill-rule="evenodd"/><path fill="#ffe599" d="m721.3658 221.43185l11.616577 0l0 12.365601l-11.616577 0z" fill-rule="evenodd"/><path stroke="#000000" stroke-width="1.0" stroke-linejoin="round" stroke-linecap="butt" d="m721.3658 221.43185l11.616577 0l0 12.365601l-11.616577 0z" fill-rule="evenodd"/><path fill="#ffe599" d="m744.97064 221.43185l11.616516 0l0 12.365601l-11.616516 0z" fill-rule="evenodd"/><path stroke="#000000" stroke-width="1.0" stroke-linejoin="round" stroke-linecap="butt" d="m744.97064 221.43185l11.616516 0l0 12.365601l-11.616516 0z" fill-rule="evenodd"/><path fill="#ffe599" d="m768.57544 221.43185l11.616577 0l0 12.365601l-11.616577 0z" fill-rule="evenodd"/><path stroke="#000000" stroke-width="1.0" stroke-linejoin="round" stroke-linecap="butt" d="m768.57544 221.43185l11.616577 0l0 12.365601l-11.616577 0z" fill-rule="evenodd"/><path fill="#ffe599" d="m792.1803 221.43185l11.616516 0l0 12.365601l-11.616516 0z" fill-rule="evenodd"/><path stroke="#000000" stroke-width="1.0" stroke-linejoin="round" stroke-linecap="butt" d="m792.1803 221.43185l11.616516 0l0 12.365601l-11.616516 0z" fill-rule="evenodd"/><path fill="#ffe599" d="m815.7851 221.43185l11.616577 0l0 12.365601l-11.616577 0z" fill-rule="evenodd"/><path stroke="#000000" stroke-width="1.0" stroke-linejoin="round" stroke-linecap="butt" d="m815.7851 221.43185l11.616577 0l0 12.365601l-11.616577 0z" fill-rule="evenodd"/><path fill="#ffe599" d="m839.38995 221.43185l11.616516 0l0 12.365601l-11.616516 0z" fill-rule="evenodd"/><path stroke="#000000" stroke-width="1.0" stroke-linejoin="round" stroke-linecap="butt" d="m839.38995 221.43185l11.616516 0l0 12.365601l-11.616516 0z" fill-rule="evenodd"/><path fill="#ffe599" d="m862.99475 221.43185l11.616577 0l0 12.365601l-11.616577 0z" fill-rule="evenodd"/><path stroke="#000000" stroke-width="1.0" stroke-linejoin="round" stroke-linecap="butt" d="m862.99475 221.43185l11.616577 0l0 12.365601l-11.616577 0z" fill-rule="evenodd"/><path fill="#ffe599" d="m886.5996 221.43185l11.616516 0l0 12.365601l-11.616516 0z" fill-rule="evenodd"/><path stroke="#000000" stroke-width="1.0" stroke-linejoin="round" stroke-linecap="butt" d="m886.5996 221.43185l11.616516 0l0 12.365601l-11.616516 0z" fill-rule="evenodd"/><path fill="#ffe599" d="m910.2044 221.43185l11.616577 0l0 12.365601l-11.616577 0z" fill-rule="evenodd"/><path stroke="#000000" stroke-width="1.0" stroke-linejoin="round" stroke-linecap="butt" d="m910.2044 221.43185l11.616577 0l0 12.365601l-11.616577 0z" fill-rule="evenodd"/><path fill="#ffe599" d="m556.13196 246.55876l11.616577 0l0 12.365616l-11.616577 0z" fill-rule="evenodd"/><path stroke="#000000" stroke-width="1.0" stroke-linejoin="round" stroke-linecap="butt" d="m556.13196 246.55876l11.616577 0l0 12.365616l-11.616577 0z" fill-rule="evenodd"/><path fill="#ffe599" d="m579.7368 246.55876l11.616516 0l0 12.365616l-11.616516 0z" fill-rule="evenodd"/><path stroke="#000000" stroke-width="1.0" stroke-linejoin="round" stroke-linecap="butt" d="m579.7368 246.55876l11.616516 0l0 12.365616l-11.616516 0z" fill-rule="evenodd"/><path fill="#ffe599" d="m603.3416 246.55876l11.616577 0l0 12.365616l-11.616577 0z" fill-rule="evenodd"/><path stroke="#000000" stroke-width="1.0" stroke-linejoin="round" stroke-linecap="butt" d="m603.3416 246.55876l11.616577 0l0 12.365616l-11.616577 0z" fill-rule="evenodd"/><path fill="#ffe599" d="m626.9465 246.55876l11.616577 0l0 12.365616l-11.616577 0z" fill-rule="evenodd"/><path stroke="#000000" stroke-width="1.0" stroke-linejoin="round" stroke-linecap="butt" d="m626.9465 246.55876l11.616577 0l0 12.365616l-11.616577 0z" fill-rule="evenodd"/><path fill="#ffe599" d="m650.55133 246.55876l11.616516 0l0 12.365616l-11.616516 0z" fill-rule="evenodd"/><path stroke="#000000" stroke-width="1.0" stroke-linejoin="round" stroke-linecap="butt" d="m650.55133 246.55876l11.616516 0l0 12.365616l-11.616516 0z" fill-rule="evenodd"/><path fill="#ffe599" d="m674.1561 246.55876l11.616577 0l0 12.365616l-11.616577 0z" fill-rule="evenodd"/><path stroke="#000000" stroke-width="1.0" stroke-linejoin="round" stroke-linecap="butt" d="m674.1561 246.55876l11.616577 0l0 12.365616l-11.616577 0z" fill-rule="evenodd"/><path fill="#ffe599" d="m697.761 246.55876l11.616516 0l0 12.365616l-11.616516 0z" fill-rule="evenodd"/><path stroke="#000000" stroke-width="1.0" stroke-linejoin="round" stroke-linecap="butt" d="m697.761 246.55876l11.616516 0l0 12.365616l-11.616516 0z" fill-rule="evenodd"/><path fill="#ffe599" d="m721.3658 246.55876l11.616577 0l0 12.365616l-11.616577 0z" fill-rule="evenodd"/><path stroke="#000000" stroke-width="1.0" stroke-linejoin="round" stroke-linecap="butt" d="m721.3658 246.55876l11.616577 0l0 12.365616l-11.616577 0z" fill-rule="evenodd"/><path fill="#ffe599" d="m744.97064 246.55876l11.616516 0l0 12.365616l-11.616516 0z" fill-rule="evenodd"/><path stroke="#000000" stroke-width="1.0" stroke-linejoin="round" stroke-linecap="butt" d="m744.97064 246.55876l11.616516 0l0 12.365616l-11.616516 0z" fill-rule="evenodd"/><path fill="#ffe599" d="m768.57544 246.55876l11.616577 0l0 12.365616l-11.616577 0z" fill-rule="evenodd"/><path stroke="#000000" stroke-width="1.0" stroke-linejoin="round" stroke-linecap="butt" d="m768.57544 246.55876l11.616577 0l0 12.365616l-11.616577 0z" fill-rule="evenodd"/><path fill="#ffe599" d="m792.1803 246.55876l11.616516 0l0 12.365616l-11.616516 0z" fill-rule="evenodd"/><path stroke="#000000" stroke-width="1.0" stroke-linejoin="round" stroke-linecap="butt" d="m792.1803 246.55876l11.616516 0l0 12.365616l-11.616516 0z" fill-rule="evenodd"/><path fill="#ffe599" d="m815.7851 246.55876l11.616577 0l0 12.365616l-11.616577 0z" fill-rule="evenodd"/><path stroke="#000000" stroke-width="1.0" stroke-linejoin="round" stroke-linecap="butt" d="m815.7851 246.55876l11.616577 0l0 12.365616l-11.616577 0z" fill-rule="evenodd"/><path fill="#ffe599" d="m839.38995 246.55876l11.616516 0l0 12.365616l-11.616516 0z" fill-rule="evenodd"/><path stroke="#000000" stroke-width="1.0" stroke-linejoin="round" stroke-linecap="butt" d="m839.38995 246.55876l11.616516 0l0 12.365616l-11.616516 0z" fill-rule="evenodd"/><path fill="#ffe599" d="m862.99475 246.55876l11.616577 0l0 12.365616l-11.616577 0z" fill-rule="evenodd"/><path stroke="#000000" stroke-width="1.0" stroke-linejoin="round" stroke-linecap="butt" d="m862.99475 246.55876l11.616577 0l0 12.365616l-11.616577 0z" fill-rule="evenodd"/><path fill="#ffe599" d="m886.5996 246.55876l11.616516 0l0 12.365616l-11.616516 0z" fill-rule="evenodd"/><path stroke="#000000" stroke-width="1.0" stroke-linejoin="round" stroke-linecap="butt" d="m886.5996 246.55876l11.616516 0l0 12.365616l-11.616516 0z" fill-rule="evenodd"/><path fill="#ffe599" d="m910.2044 246.55876l11.616577 0l0 12.365616l-11.616577 0z" fill-rule="evenodd"/><path stroke="#000000" stroke-width="1.0" stroke-linejoin="round" stroke-linecap="butt" d="m910.2044 246.55876l11.616577 0l0 12.365616l-11.616577 0z" fill-rule="evenodd"/><path fill="#ffe599" d="m556.13196 271.68567l11.616577 0l0 12.365601l-11.616577 0z" fill-rule="evenodd"/><path stroke="#000000" stroke-width="1.0" stroke-linejoin="round" stroke-linecap="butt" d="m556.13196 271.68567l11.616577 0l0 12.365601l-11.616577 0z" fill-rule="evenodd"/><path fill="#ffe599" d="m579.7368 271.68567l11.616516 0l0 12.365601l-11.616516 0z" fill-rule="evenodd"/><path stroke="#000000" stroke-width="1.0" stroke-linejoin="round" stroke-linecap="butt" d="m579.7368 271.68567l11.616516 0l0 12.365601l-11.616516 0z" fill-rule="evenodd"/><path fill="#ffe599" d="m603.3416 271.68567l11.616577 0l0 12.365601l-11.616577 0z" fill-rule="evenodd"/><path stroke="#000000" stroke-width="1.0" stroke-linejoin="round" stroke-linecap="butt" d="m603.3416 271.68567l11.616577 0l0 12.365601l-11.616577 0z" fill-rule="evenodd"/><path fill="#ffe599" d="m626.9465 271.68567l11.616577 0l0 12.365601l-11.616577 0z" fill-rule="evenodd"/><path stroke="#000000" stroke-width="1.0" stroke-linejoin="round" stroke-linecap="butt" d="m626.9465 271.68567l11.616577 0l0 12.365601l-11.616577 0z" fill-rule="evenodd"/><path fill="#ffe599" d="m650.55133 271.68567l11.616516 0l0 12.365601l-11.616516 0z" fill-rule="evenodd"/><path stroke="#000000" stroke-width="1.0" stroke-linejoin="round" stroke-linecap="butt" d="m650.55133 271.68567l11.616516 0l0 12.365601l-11.616516 0z" fill-rule="evenodd"/><path fill="#ffe599" d="m674.1561 271.68567l11.616577 0l0 12.365601l-11.616577 0z" fill-rule="evenodd"/><path stroke="#000000" stroke-width="1.0" stroke-linejoin="round" stroke-linecap="butt" d="m674.1561 271.68567l11.616577 0l0 12.365601l-11.616577 0z" fill-rule="evenodd"/><path fill="#ffe599" d="m697.761 271.68567l11.616516 0l0 12.365601l-11.616516 0z" fill-rule="evenodd"/><path stroke="#000000" stroke-width="1.0" stroke-linejoin="round" stroke-linecap="butt" d="m697.761 271.68567l11.616516 0l0 12.365601l-11.616516 0z" fill-rule="evenodd"/><path fill="#ffe599" d="m721.3658 271.68567l11.616577 0l0 12.365601l-11.616577 0z" fill-rule="evenodd"/><path stroke="#000000" stroke-width="1.0" stroke-linejoin="round" stroke-linecap="butt" d="m721.3658 271.68567l11.616577 0l0 12.365601l-11.616577 0z" fill-rule="evenodd"/><path fill="#ffe599" d="m744.97064 271.68567l11.616516 0l0 12.365601l-11.616516 0z" fill-rule="evenodd"/><path stroke="#000000" stroke-width="1.0" stroke-linejoin="round" stroke-linecap="butt" d="m744.97064 271.68567l11.616516 0l0 12.365601l-11.616516 0z" fill-rule="evenodd"/><path fill="#ffe599" d="m768.57544 271.68567l11.616577 0l0 12.365601l-11.616577 0z" fill-rule="evenodd"/><path stroke="#000000" stroke-width="1.0" stroke-linejoin="round" stroke-linecap="butt" d="m768.57544 271.68567l11.616577 0l0 12.365601l-11.616577 0z" fill-rule="evenodd"/><path fill="#ffe599" d="m792.1803 271.68567l11.616516 0l0 12.365601l-11.616516 0z" fill-rule="evenodd"/><path stroke="#000000" stroke-width="1.0" stroke-linejoin="round" stroke-linecap="butt" d="m792.1803 271.68567l11.616516 0l0 12.365601l-11.616516 0z" fill-rule="evenodd"/><path fill="#ffe599" d="m815.7851 271.68567l11.616577 0l0 12.365601l-11.616577 0z" fill-rule="evenodd"/><path stroke="#000000" stroke-width="1.0" stroke-linejoin="round" stroke-linecap="butt" d="m815.7851 271.68567l11.616577 0l0 12.365601l-11.616577 0z" fill-rule="evenodd"/><path fill="#ffe599" d="m839.38995 271.68567l11.616516 0l0 12.365601l-11.616516 0z" fill-rule="evenodd"/><path stroke="#000000" stroke-width="1.0" stroke-linejoin="round" stroke-linecap="butt" d="m839.38995 271.68567l11.616516 0l0 12.365601l-11.616516 0z" fill-rule="evenodd"/><path fill="#ffe599" d="m862.99475 271.68567l11.616577 0l0 12.365601l-11.616577 0z" fill-rule="evenodd"/><path stroke="#000000" stroke-width="1.0" stroke-linejoin="round" stroke-linecap="butt" d="m862.99475 271.68567l11.616577 0l0 12.365601l-11.616577 0z" fill-rule="evenodd"/><path fill="#ffe599" d="m886.5996 271.68567l11.616516 0l0 12.365601l-11.616516 0z" fill-rule="evenodd"/><path stroke="#000000" stroke-width="1.0" stroke-linejoin="round" stroke-linecap="butt" d="m886.5996 271.68567l11.616516 0l0 12.365601l-11.616516 0z" fill-rule="evenodd"/><path fill="#ffe599" d="m910.2044 271.68567l11.616577 0l0 12.365601l-11.616577 0z" fill-rule="evenodd"/><path stroke="#000000" stroke-width="1.0" stroke-linejoin="round" stroke-linecap="butt" d="m910.2044 271.68567l11.616577 0l0 12.365601l-11.616577 0z" fill-rule="evenodd"/><path fill="#ffe599" d="m556.13196 296.8126l11.616577 0l0 12.365601l-11.616577 0z" fill-rule="evenodd"/><path stroke="#000000" stroke-width="1.0" stroke-linejoin="round" stroke-linecap="butt" d="m556.13196 296.8126l11.616577 0l0 12.365601l-11.616577 0z" fill-rule="evenodd"/><path fill="#ffe599" d="m579.7368 296.8126l11.616516 0l0 12.365601l-11.616516 0z" fill-rule="evenodd"/><path stroke="#000000" stroke-width="1.0" stroke-linejoin="round" stroke-linecap="butt" d="m579.7368 296.8126l11.616516 0l0 12.365601l-11.616516 0z" fill-rule="evenodd"/><path fill="#ffe599" d="m603.3416 296.8126l11.616577 0l0 12.365601l-11.616577 0z" fill-rule="evenodd"/><path stroke="#000000" stroke-width="1.0" stroke-linejoin="round" stroke-linecap="butt" d="m603.3416 296.8126l11.616577 0l0 12.365601l-11.616577 0z" fill-rule="evenodd"/><path fill="#ffe599" d="m626.9465 296.8126l11.616577 0l0 12.365601l-11.616577 0z" fill-rule="evenodd"/><path stroke="#000000" stroke-width="1.0" stroke-linejoin="round" stroke-linecap="butt" d="m626.9465 296.8126l11.616577 0l0 12.365601l-11.616577 0z" fill-rule="evenodd"/><path fill="#ffe599" d="m650.55133 296.8126l11.616516 0l0 12.365601l-11.616516 0z" fill-rule="evenodd"/><path stroke="#000000" stroke-width="1.0" stroke-linejoin="round" stroke-linecap="butt" d="m650.55133 296.8126l11.616516 0l0 12.365601l-11.616516 0z" fill-rule="evenodd"/><path fill="#ffe599" d="m674.1561 296.8126l11.616577 0l0 12.365601l-11.616577 0z" fill-rule="evenodd"/><path stroke="#000000" stroke-width="1.0" stroke-linejoin="round" stroke-linecap="butt" d="m674.1561 296.8126l11.616577 0l0 12.365601l-11.616577 0z" fill-rule="evenodd"/><path fill="#ffe599" d="m697.761 296.8126l11.616516 0l0 12.365601l-11.616516 0z" fill-rule="evenodd"/><path stroke="#000000" stroke-width="1.0" stroke-linejoin="round" stroke-linecap="butt" d="m697.761 296.8126l11.616516 0l0 12.365601l-11.616516 0z" fill-rule="evenodd"/><path fill="#ffe599" d="m721.3658 296.8126l11.616577 0l0 12.365601l-11.616577 0z" fill-rule="evenodd"/><path stroke="#000000" stroke-width="1.0" stroke-linejoin="round" stroke-linecap="butt" d="m721.3658 296.8126l11.616577 0l0 12.365601l-11.616577 0z" fill-rule="evenodd"/><path fill="#ffe599" d="m744.97064 296.8126l11.616516 0l0 12.365601l-11.616516 0z" fill-rule="evenodd"/><path stroke="#000000" stroke-width="1.0" stroke-linejoin="round" stroke-linecap="butt" d="m744.97064 296.8126l11.616516 0l0 12.365601l-11.616516 0z" fill-rule="evenodd"/><path fill="#ffe599" d="m768.57544 296.8126l11.616577 0l0 12.365601l-11.616577 0z" fill-rule="evenodd"/><path stroke="#000000" stroke-width="1.0" stroke-linejoin="round" stroke-linecap="butt" d="m768.57544 296.8126l11.616577 0l0 12.365601l-11.616577 0z" fill-rule="evenodd"/><path fill="#ffe599" d="m792.1803 296.8126l11.616516 0l0 12.365601l-11.616516 0z" fill-rule="evenodd"/><path stroke="#000000" stroke-width="1.0" stroke-linejoin="round" stroke-linecap="butt" d="m792.1803 296.8126l11.616516 0l0 12.365601l-11.616516 0z" fill-rule="evenodd"/><path fill="#ffe599" d="m815.7851 296.8126l11.616577 0l0 12.365601l-11.616577 0z" fill-rule="evenodd"/><path stroke="#000000" stroke-width="1.0" stroke-linejoin="round" stroke-linecap="butt" d="m815.7851 296.8126l11.616577 0l0 12.365601l-11.616577 0z" fill-rule="evenodd"/><path fill="#ffe599" d="m839.38995 296.8126l11.616516 0l0 12.365601l-11.616516 0z" fill-rule="evenodd"/><path stroke="#000000" stroke-width="1.0" stroke-linejoin="round" stroke-linecap="butt" d="m839.38995 296.8126l11.616516 0l0 12.365601l-11.616516 0z" fill-rule="evenodd"/><path fill="#ffe599" d="m862.99475 296.8126l11.616577 0l0 12.365601l-11.616577 0z" fill-rule="evenodd"/><path stroke="#000000" stroke-width="1.0" stroke-linejoin="round" stroke-linecap="butt" d="m862.99475 296.8126l11.616577 0l0 12.365601l-11.616577 0z" fill-rule="evenodd"/><path fill="#ffe599" d="m886.5996 296.8126l11.616516 0l0 12.365601l-11.616516 0z" fill-rule="evenodd"/><path stroke="#000000" stroke-width="1.0" stroke-linejoin="round" stroke-linecap="butt" d="m886.5996 296.8126l11.616516 0l0 12.365601l-11.616516 0z" fill-rule="evenodd"/><path fill="#ffe599" d="m910.2044 296.8126l11.616577 0l0 12.365601l-11.616577 0z" fill-rule="evenodd"/><path stroke="#000000" stroke-width="1.0" stroke-linejoin="round" stroke-linecap="butt" d="m910.2044 296.8126l11.616577 0l0 12.365601l-11.616577 0z" fill-rule="evenodd"/><path fill="#ffe599" d="m556.13196 321.93948l11.616577 0l0 12.365601l-11.616577 0z" fill-rule="evenodd"/><path stroke="#000000" stroke-width="1.0" stroke-linejoin="round" stroke-linecap="butt" d="m556.13196 321.93948l11.616577 0l0 12.365601l-11.616577 0z" fill-rule="evenodd"/><path fill="#ffe599" d="m579.7368 321.93948l11.616516 0l0 12.365601l-11.616516 0z" fill-rule="evenodd"/><path stroke="#000000" stroke-width="1.0" stroke-linejoin="round" stroke-linecap="butt" d="m579.7368 321.93948l11.616516 0l0 12.365601l-11.616516 0z" fill-rule="evenodd"/><path fill="#ffe599" d="m603.3416 321.93948l11.616577 0l0 12.365601l-11.616577 0z" fill-rule="evenodd"/><path stroke="#000000" stroke-width="1.0" stroke-linejoin="round" stroke-linecap="butt" d="m603.3416 321.93948l11.616577 0l0 12.365601l-11.616577 0z" fill-rule="evenodd"/><path fill="#ffe599" d="m626.9465 321.93948l11.616577 0l0 12.365601l-11.616577 0z" fill-rule="evenodd"/><path stroke="#000000" stroke-width="1.0" stroke-linejoin="round" stroke-linecap="butt" d="m626.9465 321.93948l11.616577 0l0 12.365601l-11.616577 0z" fill-rule="evenodd"/><path fill="#ffe599" d="m650.55133 321.93948l11.616516 0l0 12.365601l-11.616516 0z" fill-rule="evenodd"/><path stroke="#000000" stroke-width="1.0" stroke-linejoin="round" stroke-linecap="butt" d="m650.55133 321.93948l11.616516 0l0 12.365601l-11.616516 0z" fill-rule="evenodd"/><path fill="#ffe599" d="m674.1561 321.93948l11.616577 0l0 12.365601l-11.616577 0z" fill-rule="evenodd"/><path stroke="#000000" stroke-width="1.0" stroke-linejoin="round" stroke-linecap="butt" d="m674.1561 321.93948l11.616577 0l0 12.365601l-11.616577 0z" fill-rule="evenodd"/><path fill="#ffe599" d="m697.761 321.93948l11.616516 0l0 12.365601l-11.616516 0z" fill-rule="evenodd"/><path stroke="#000000" stroke-width="1.0" stroke-linejoin="round" stroke-linecap="butt" d="m697.761 321.93948l11.616516 0l0 12.365601l-11.616516 0z" fill-rule="evenodd"/><path fill="#ffe599" d="m721.3658 321.93948l11.616577 0l0 12.365601l-11.616577 0z" fill-rule="evenodd"/><path stroke="#000000" stroke-width="1.0" stroke-linejoin="round" stroke-linecap="butt" d="m721.3658 321.93948l11.616577 0l0 12.365601l-11.616577 0z" fill-rule="evenodd"/><path fill="#ffe599" d="m744.97064 321.93948l11.616516 0l0 12.365601l-11.616516 0z" fill-rule="evenodd"/><path stroke="#000000" stroke-width="1.0" stroke-linejoin="round" stroke-linecap="butt" d="m744.97064 321.93948l11.616516 0l0 12.365601l-11.616516 0z" fill-rule="evenodd"/><path fill="#ffe599" d="m768.57544 321.93948l11.616577 0l0 12.365601l-11.616577 0z" fill-rule="evenodd"/><path stroke="#000000" stroke-width="1.0" stroke-linejoin="round" stroke-linecap="butt" d="m768.57544 321.93948l11.616577 0l0 12.365601l-11.616577 0z" fill-rule="evenodd"/><path fill="#ffe599" d="m792.1803 321.93948l11.616516 0l0 12.365601l-11.616516 0z" fill-rule="evenodd"/><path stroke="#000000" stroke-width="1.0" stroke-linejoin="round" stroke-linecap="butt" d="m792.1803 321.93948l11.616516 0l0 12.365601l-11.616516 0z" fill-rule="evenodd"/><path fill="#ffe599" d="m815.7851 321.93948l11.616577 0l0 12.365601l-11.616577 0z" fill-rule="evenodd"/><path stroke="#000000" stroke-width="1.0" stroke-linejoin="round" stroke-linecap="butt" d="m815.7851 321.93948l11.616577 0l0 12.365601l-11.616577 0z" fill-rule="evenodd"/><path fill="#ffe599" d="m839.38995 321.93948l11.616516 0l0 12.365601l-11.616516 0z" fill-rule="evenodd"/><path stroke="#000000" stroke-width="1.0" stroke-linejoin="round" stroke-linecap="butt" d="m839.38995 321.93948l11.616516 0l0 12.365601l-11.616516 0z" fill-rule="evenodd"/><path fill="#ffe599" d="m862.99475 321.93948l11.616577 0l0 12.365601l-11.616577 0z" fill-rule="evenodd"/><path stroke="#000000" stroke-width="1.0" stroke-linejoin="round" stroke-linecap="butt" d="m862.99475 321.93948l11.616577 0l0 12.365601l-11.616577 0z" fill-rule="evenodd"/><path fill="#ffe599" d="m886.5996 321.93948l11.616516 0l0 12.365601l-11.616516 0z" fill-rule="evenodd"/><path stroke="#000000" stroke-width="1.0" stroke-linejoin="round" stroke-linecap="butt" d="m886.5996 321.93948l11.616516 0l0 12.365601l-11.616516 0z" fill-rule="evenodd"/><path fill="#ffe599" d="m910.2044 321.93948l11.616577 0l0 12.365601l-11.616577 0z" fill-rule="evenodd"/><path stroke="#000000" stroke-width="1.0" stroke-linejoin="round" stroke-linecap="butt" d="m910.2044 321.93948l11.616577 0l0 12.365601l-11.616577 0z" fill-rule="evenodd"/><path fill="#ffe599" d="m556.13196 347.0664l11.616577 0l0 12.365601l-11.616577 0z" fill-rule="evenodd"/><path stroke="#000000" stroke-width="1.0" stroke-linejoin="round" stroke-linecap="butt" d="m556.13196 347.0664l11.616577 0l0 12.365601l-11.616577 0z" fill-rule="evenodd"/><path fill="#ffe599" d="m579.7368 347.0664l11.616516 0l0 12.365601l-11.616516 0z" fill-rule="evenodd"/><path stroke="#000000" stroke-width="1.0" stroke-linejoin="round" stroke-linecap="butt" d="m579.7368 347.0664l11.616516 0l0 12.365601l-11.616516 0z" fill-rule="evenodd"/><path fill="#ffe599" d="m603.3416 347.0664l11.616577 0l0 12.365601l-11.616577 0z" fill-rule="evenodd"/><path stroke="#000000" stroke-width="1.0" stroke-linejoin="round" stroke-linecap="butt" d="m603.3416 347.0664l11.616577 0l0 12.365601l-11.616577 0z" fill-rule="evenodd"/><path fill="#ffe599" d="m626.9465 347.0664l11.616577 0l0 12.365601l-11.616577 0z" fill-rule="evenodd"/><path stroke="#000000" stroke-width="1.0" stroke-linejoin="round" stroke-linecap="butt" d="m626.9465 347.0664l11.616577 0l0 12.365601l-11.616577 0z" fill-rule="evenodd"/><path fill="#ffe599" d="m650.55133 347.0664l11.616516 0l0 12.365601l-11.616516 0z" fill-rule="evenodd"/><path stroke="#000000" stroke-width="1.0" stroke-linejoin="round" stroke-linecap="butt" d="m650.55133 347.0664l11.616516 0l0 12.365601l-11.616516 0z" fill-rule="evenodd"/><path fill="#ffe599" d="m674.1561 347.0664l11.616577 0l0 12.365601l-11.616577 0z" fill-rule="evenodd"/><path stroke="#000000" stroke-width="1.0" stroke-linejoin="round" stroke-linecap="butt" d="m674.1561 347.0664l11.616577 0l0 12.365601l-11.616577 0z" fill-rule="evenodd"/><path fill="#ffe599" d="m697.761 347.0664l11.616516 0l0 12.365601l-11.616516 0z" fill-rule="evenodd"/><path stroke="#000000" stroke-width="1.0" stroke-linejoin="round" stroke-linecap="butt" d="m697.761 347.0664l11.616516 0l0 12.365601l-11.616516 0z" fill-rule="evenodd"/><path fill="#ffe599" d="m721.3658 347.0664l11.616577 0l0 12.365601l-11.616577 0z" fill-rule="evenodd"/><path stroke="#000000" stroke-width="1.0" stroke-linejoin="round" stroke-linecap="butt" d="m721.3658 347.0664l11.616577 0l0 12.365601l-11.616577 0z" fill-rule="evenodd"/><path fill="#ffe599" d="m744.97064 347.0664l11.616516 0l0 12.365601l-11.616516 0z" fill-rule="evenodd"/><path stroke="#000000" stroke-width="1.0" stroke-linejoin="round" stroke-linecap="butt" d="m744.97064 347.0664l11.616516 0l0 12.365601l-11.616516 0z" fill-rule="evenodd"/><path fill="#ffe599" d="m768.57544 347.0664l11.616577 0l0 12.365601l-11.616577 0z" fill-rule="evenodd"/><path stroke="#000000" stroke-width="1.0" stroke-linejoin="round" stroke-linecap="butt" d="m768.57544 347.0664l11.616577 0l0 12.365601l-11.616577 0z" fill-rule="evenodd"/><path fill="#ffe599" d="m792.1803 347.0664l11.616516 0l0 12.365601l-11.616516 0z" fill-rule="evenodd"/><path stroke="#000000" stroke-width="1.0" stroke-linejoin="round" stroke-linecap="butt" d="m792.1803 347.0664l11.616516 0l0 12.365601l-11.616516 0z" fill-rule="evenodd"/><path fill="#ffe599" d="m815.7851 347.0664l11.616577 0l0 12.365601l-11.616577 0z" fill-rule="evenodd"/><path stroke="#000000" stroke-width="1.0" stroke-linejoin="round" stroke-linecap="butt" d="m815.7851 347.0664l11.616577 0l0 12.365601l-11.616577 0z" fill-rule="evenodd"/><path fill="#ffe599" d="m839.38995 347.0664l11.616516 0l0 12.365601l-11.616516 0z" fill-rule="evenodd"/><path stroke="#000000" stroke-width="1.0" stroke-linejoin="round" stroke-linecap="butt" d="m839.38995 347.0664l11.616516 0l0 12.365601l-11.616516 0z" fill-rule="evenodd"/><path fill="#ffe599" d="m862.99475 347.0664l11.616577 0l0 12.365601l-11.616577 0z" fill-rule="evenodd"/><path stroke="#000000" stroke-width="1.0" stroke-linejoin="round" stroke-linecap="butt" d="m862.99475 347.0664l11.616577 0l0 12.365601l-11.616577 0z" fill-rule="evenodd"/><path fill="#ffe599" d="m886.5996 347.0664l11.616516 0l0 12.365601l-11.616516 0z" fill-rule="evenodd"/><path stroke="#000000" stroke-width="1.0" stroke-linejoin="round" stroke-linecap="butt" d="m886.5996 347.0664l11.616516 0l0 12.365601l-11.616516 0z" fill-rule="evenodd"/><path fill="#ffe599" d="m910.2044 347.0664l11.616577 0l0 12.365601l-11.616577 0z" fill-rule="evenodd"/><path stroke="#000000" stroke-width="1.0" stroke-linejoin="round" stroke-linecap="butt" d="m910.2044 347.0664l11.616577 0l0 12.365601l-11.616577 0z" fill-rule="evenodd"/><path fill="#ffe599" d="m556.13196 372.1933l11.616577 0l0 12.365601l-11.616577 0z" fill-rule="evenodd"/><path stroke="#000000" stroke-width="1.0" stroke-linejoin="round" stroke-linecap="butt" d="m556.13196 372.1933l11.616577 0l0 12.365601l-11.616577 0z" fill-rule="evenodd"/><path fill="#ffe599" d="m579.7368 372.1933l11.616516 0l0 12.365601l-11.616516 0z" fill-rule="evenodd"/><path stroke="#000000" stroke-width="1.0" stroke-linejoin="round" stroke-linecap="butt" d="m579.7368 372.1933l11.616516 0l0 12.365601l-11.616516 0z" fill-rule="evenodd"/><path fill="#ffe599" d="m603.3416 372.1933l11.616577 0l0 12.365601l-11.616577 0z" fill-rule="evenodd"/><path stroke="#000000" stroke-width="1.0" stroke-linejoin="round" stroke-linecap="butt" d="m603.3416 372.1933l11.616577 0l0 12.365601l-11.616577 0z" fill-rule="evenodd"/><path fill="#ffe599" d="m626.9465 372.1933l11.616577 0l0 12.365601l-11.616577 0z" fill-rule="evenodd"/><path stroke="#000000" stroke-width="1.0" stroke-linejoin="round" stroke-linecap="butt" d="m626.9465 372.1933l11.616577 0l0 12.365601l-11.616577 0z" fill-rule="evenodd"/><path fill="#ffe599" d="m650.55133 372.1933l11.616516 0l0 12.365601l-11.616516 0z" fill-rule="evenodd"/><path stroke="#000000" stroke-width="1.0" stroke-linejoin="round" stroke-linecap="butt" d="m650.55133 372.1933l11.616516 0l0 12.365601l-11.616516 0z" fill-rule="evenodd"/><path fill="#ffe599" d="m674.1561 372.1933l11.616577 0l0 12.365601l-11.616577 0z" fill-rule="evenodd"/><path stroke="#000000" stroke-width="1.0" stroke-linejoin="round" stroke-linecap="butt" d="m674.1561 372.1933l11.616577 0l0 12.365601l-11.616577 0z" fill-rule="evenodd"/><path fill="#ffe599" d="m697.761 372.1933l11.616516 0l0 12.365601l-11.616516 0z" fill-rule="evenodd"/><path stroke="#000000" stroke-width="1.0" stroke-linejoin="round" stroke-linecap="butt" d="m697.761 372.1933l11.616516 0l0 12.365601l-11.616516 0z" fill-rule="evenodd"/><path fill="#ffe599" d="m721.3658 372.1933l11.616577 0l0 12.365601l-11.616577 0z" fill-rule="evenodd"/><path stroke="#000000" stroke-width="1.0" stroke-linejoin="round" stroke-linecap="butt" d="m721.3658 372.1933l11.616577 0l0 12.365601l-11.616577 0z" fill-rule="evenodd"/><path fill="#ffe599" d="m744.97064 372.1933l11.616516 0l0 12.365601l-11.616516 0z" fill-rule="evenodd"/><path stroke="#000000" stroke-width="1.0" stroke-linejoin="round" stroke-linecap="butt" d="m744.97064 372.1933l11.616516 0l0 12.365601l-11.616516 0z" fill-rule="evenodd"/><path fill="#ffe599" d="m768.57544 372.1933l11.616577 0l0 12.365601l-11.616577 0z" fill-rule="evenodd"/><path stroke="#000000" stroke-width="1.0" stroke-linejoin="round" stroke-linecap="butt" d="m768.57544 372.1933l11.616577 0l0 12.365601l-11.616577 0z" fill-rule="evenodd"/><path fill="#ffe599" d="m792.1803 372.1933l11.616516 0l0 12.365601l-11.616516 0z" fill-rule="evenodd"/><path stroke="#000000" stroke-width="1.0" stroke-linejoin="round" stroke-linecap="butt" d="m792.1803 372.1933l11.616516 0l0 12.365601l-11.616516 0z" fill-rule="evenodd"/><path fill="#ffe599" d="m815.7851 372.1933l11.616577 0l0 12.365601l-11.616577 0z" fill-rule="evenodd"/><path stroke="#000000" stroke-width="1.0" stroke-linejoin="round" stroke-linecap="butt" d="m815.7851 372.1933l11.616577 0l0 12.365601l-11.616577 0z" fill-rule="evenodd"/><path fill="#ffe599" d="m839.38995 372.1933l11.616516 0l0 12.365601l-11.616516 0z" fill-rule="evenodd"/><path stroke="#000000" stroke-width="1.0" stroke-linejoin="round" stroke-linecap="butt" d="m839.38995 372.1933l11.616516 0l0 12.365601l-11.616516 0z" fill-rule="evenodd"/><path fill="#ffe599" d="m862.99475 372.1933l11.616577 0l0 12.365601l-11.616577 0z" fill-rule="evenodd"/><path stroke="#000000" stroke-width="1.0" stroke-linejoin="round" stroke-linecap="butt" d="m862.99475 372.1933l11.616577 0l0 12.365601l-11.616577 0z" fill-rule="evenodd"/><path fill="#ffe599" d="m886.5996 372.1933l11.616516 0l0 12.365601l-11.616516 0z" fill-rule="evenodd"/><path stroke="#000000" stroke-width="1.0" stroke-linejoin="round" stroke-linecap="butt" d="m886.5996 372.1933l11.616516 0l0 12.365601l-11.616516 0z" fill-rule="evenodd"/><path fill="#ffe599" d="m910.2044 372.1933l11.616577 0l0 12.365601l-11.616577 0z" fill-rule="evenodd"/><path stroke="#000000" stroke-width="1.0" stroke-linejoin="round" stroke-linecap="butt" d="m910.2044 372.1933l11.616577 0l0 12.365601l-11.616577 0z" fill-rule="evenodd"/><path fill="#ffe599" d="m556.13196 397.32022l11.616577 0l0 12.365601l-11.616577 0z" fill-rule="evenodd"/><path stroke="#000000" stroke-width="1.0" stroke-linejoin="round" stroke-linecap="butt" d="m556.13196 397.32022l11.616577 0l0 12.365601l-11.616577 0z" fill-rule="evenodd"/><path fill="#ffe599" d="m579.7368 397.32022l11.616516 0l0 12.365601l-11.616516 0z" fill-rule="evenodd"/><path stroke="#000000" stroke-width="1.0" stroke-linejoin="round" stroke-linecap="butt" d="m579.7368 397.32022l11.616516 0l0 12.365601l-11.616516 0z" fill-rule="evenodd"/><path fill="#ffe599" d="m603.3416 397.32022l11.616577 0l0 12.365601l-11.616577 0z" fill-rule="evenodd"/><path stroke="#000000" stroke-width="1.0" stroke-linejoin="round" stroke-linecap="butt" d="m603.3416 397.32022l11.616577 0l0 12.365601l-11.616577 0z" fill-rule="evenodd"/><path fill="#ffe599" d="m626.9465 397.32022l11.616577 0l0 12.365601l-11.616577 0z" fill-rule="evenodd"/><path stroke="#000000" stroke-width="1.0" stroke-linejoin="round" stroke-linecap="butt" d="m626.9465 397.32022l11.616577 0l0 12.365601l-11.616577 0z" fill-rule="evenodd"/><path fill="#ffe599" d="m650.55133 397.32022l11.616516 0l0 12.365601l-11.616516 0z" fill-rule="evenodd"/><path stroke="#000000" stroke-width="1.0" stroke-linejoin="round" stroke-linecap="butt" d="m650.55133 397.32022l11.616516 0l0 12.365601l-11.616516 0z" fill-rule="evenodd"/><path fill="#ffe599" d="m674.1561 397.32022l11.616577 0l0 12.365601l-11.616577 0z" fill-rule="evenodd"/><path stroke="#000000" stroke-width="1.0" stroke-linejoin="round" stroke-linecap="butt" d="m674.1561 397.32022l11.616577 0l0 12.365601l-11.616577 0z" fill-rule="evenodd"/><path fill="#ffe599" d="m697.761 397.32022l11.616516 0l0 12.365601l-11.616516 0z" fill-rule="evenodd"/><path stroke="#000000" stroke-width="1.0" stroke-linejoin="round" stroke-linecap="butt" d="m697.761 397.32022l11.616516 0l0 12.365601l-11.616516 0z" fill-rule="evenodd"/><path fill="#ffe599" d="m721.3658 397.32022l11.616577 0l0 12.365601l-11.616577 0z" fill-rule="evenodd"/><path stroke="#000000" stroke-width="1.0" stroke-linejoin="round" stroke-linecap="butt" d="m721.3658 397.32022l11.616577 0l0 12.365601l-11.616577 0z" fill-rule="evenodd"/><path fill="#ffe599" d="m744.97064 397.32022l11.616516 0l0 12.365601l-11.616516 0z" fill-rule="evenodd"/><path stroke="#000000" stroke-width="1.0" stroke-linejoin="round" stroke-linecap="butt" d="m744.97064 397.32022l11.616516 0l0 12.365601l-11.616516 0z" fill-rule="evenodd"/><path fill="#ffe599" d="m768.57544 397.32022l11.616577 0l0 12.365601l-11.616577 0z" fill-rule="evenodd"/><path stroke="#000000" stroke-width="1.0" stroke-linejoin="round" stroke-linecap="butt" d="m768.57544 397.32022l11.616577 0l0 12.365601l-11.616577 0z" fill-rule="evenodd"/><path fill="#ffe599" d="m792.1803 397.32022l11.616516 0l0 12.365601l-11.616516 0z" fill-rule="evenodd"/><path stroke="#000000" stroke-width="1.0" stroke-linejoin="round" stroke-linecap="butt" d="m792.1803 397.32022l11.616516 0l0 12.365601l-11.616516 0z" fill-rule="evenodd"/><path fill="#ffe599" d="m815.7851 397.32022l11.616577 0l0 12.365601l-11.616577 0z" fill-rule="evenodd"/><path stroke="#000000" stroke-width="1.0" stroke-linejoin="round" stroke-linecap="butt" d="m815.7851 397.32022l11.616577 0l0 12.365601l-11.616577 0z" fill-rule="evenodd"/><path fill="#ffe599" d="m839.38995 397.32022l11.616516 0l0 12.365601l-11.616516 0z" fill-rule="evenodd"/><path stroke="#000000" stroke-width="1.0" stroke-linejoin="round" stroke-linecap="butt" d="m839.38995 397.32022l11.616516 0l0 12.365601l-11.616516 0z" fill-rule="evenodd"/><path fill="#ffe599" d="m862.99475 397.32022l11.616577 0l0 12.365601l-11.616577 0z" fill-rule="evenodd"/><path stroke="#000000" stroke-width="1.0" stroke-linejoin="round" stroke-linecap="butt" d="m862.99475 397.32022l11.616577 0l0 12.365601l-11.616577 0z" fill-rule="evenodd"/><path fill="#ffe599" d="m886.5996 397.32022l11.616516 0l0 12.365601l-11.616516 0z" fill-rule="evenodd"/><path stroke="#000000" stroke-width="1.0" stroke-linejoin="round" stroke-linecap="butt" d="m886.5996 397.32022l11.616516 0l0 12.365601l-11.616516 0z" fill-rule="evenodd"/><path fill="#ffe599" d="m910.2044 397.32022l11.616577 0l0 12.365601l-11.616577 0z" fill-rule="evenodd"/><path stroke="#000000" stroke-width="1.0" stroke-linejoin="round" stroke-linecap="butt" d="m910.2044 397.32022l11.616577 0l0 12.365601l-11.616577 0z" fill-rule="evenodd"/><path fill="#000000" fill-opacity="0.0" d="m598.02185 435.46054l281.9093 0l0 64.64215l-281.9093 0z" fill-rule="evenodd"/><path fill="#000000" d="m674.5282 462.38055l0 -13.359375l2.625 0l5.453125 8.921875l0 -8.921875l2.515625 0l0 13.359375l-2.703125 0l-5.390625 -8.703125l0 8.703125l-2.5 0zm19.019836 -3.078125l2.546875 0.421875q-0.484375 1.40625 -1.546875 2.140625q-1.0625 0.734375 -2.65625 0.734375q-2.515625 0 -3.734375 -1.65625q-0.953125 -1.3125 -0.953125 -3.328125q0 -2.40625 1.25 -3.765625q1.265625 -1.359375 3.1875 -1.359375q2.15625 0 3.40625 1.421875q1.25 1.421875 1.1875 4.375l-6.40625 0q0.03125 1.140625 0.609375 1.78125q0.59375 0.625 1.484375 0.625q0.59375 0 1.0 -0.328125q0.421875 -0.328125 0.625 -1.0625zm0.15625 -2.59375q-0.03125 -1.109375 -0.578125 -1.6875q-0.546875 -0.578125 -1.328125 -0.578125q-0.84375 0 -1.390625 0.609375q-0.546875 0.609375 -0.53125 1.65625l3.828125 0zm4.0319824 0.703125q0 -1.28125 0.625 -2.46875q0.625 -1.203125 1.78125 -1.828125q1.15625 -0.625 2.578125 -0.625q2.1875 0 3.59375 1.421875q1.40625 1.421875 1.40625 3.609375q0 2.1875 -1.421875 3.640625q-1.421875 1.4375 -3.5625 1.4375q-1.328125 0 -2.546875 -0.59375q-1.203125 -0.609375 -1.828125 -1.765625q-0.625 -1.171875 -0.625 -2.828125zm2.625 0.125q0 1.453125 0.671875 2.21875q0.6875 0.75 1.6875 0.75q1.0 0 1.671875 -0.75q0.6875 -0.765625 0.6875 -2.234375q0 -1.421875 -0.6875 -2.1875q-0.671875 -0.765625 -1.671875 -0.765625q-1.0 0 -1.6875 0.765625q-0.671875 0.765625 -0.671875 2.203125zm9.380371 4.84375l0 -13.359375l4.328125 0q2.453125 0 3.203125 0.203125q1.140625 0.296875 1.921875 1.3125q0.78125 1.0 0.78125 2.59375q0 1.234375 -0.453125 2.078125q-0.453125 0.828125 -1.140625 1.3125q-0.6875 0.46875 -1.390625 0.625q-0.96875 0.203125 -2.796875 0.203125l-1.765625 0l0 5.03125l-2.6875 0zm2.6875 -11.09375l0 3.78125l1.484375 0q1.59375 0 2.125 -0.203125q0.546875 -0.203125 0.84375 -0.65625q0.3125 -0.453125 0.3125 -1.03125q0 -0.734375 -0.4375 -1.203125q-0.421875 -0.484375 -1.078125 -0.59375q-0.484375 -0.09375 -1.9375 -0.09375l-1.3125 0zm9.7404175 0.109375l0 -2.375l2.5625 0l0 2.375l-2.5625 0zm0 10.984375l0 -9.671875l2.5625 0l0 9.671875l-2.5625 0zm3.9489136 0l3.484375 -4.984375l-3.34375 -4.6875l3.125 0l1.71875 2.65625l1.796875 -2.65625l3.015625 0l-3.28125 4.578125l3.578125 5.09375l-3.140625 0l-1.96875 -3.0l-1.984375 3.0l-3.0 0zm17.203857 -3.078125l2.546875 0.421875q-0.484375 1.40625 -1.546875 2.140625q-1.0625 0.734375 -2.65625 0.734375q-2.515625 0 -3.734375 -1.65625q-0.953125 -1.3125 -0.953125 -3.328125q0 -2.40625 1.25 -3.765625q1.265625 -1.359375 3.1875 -1.359375q2.15625 0 3.40625 1.421875q1.25 1.421875 1.1875 4.375l-6.40625 0q0.03125 1.140625 0.609375 1.78125q0.59375 0.625 1.484375 0.625q0.59375 0 1.0 -0.328125q0.421875 -0.328125 0.625 -1.0625zm0.15625 -2.59375q-0.03125 -1.109375 -0.578125 -1.6875q-0.546875 -0.578125 -1.328125 -0.578125q-0.84375 0 -1.390625 0.609375q-0.546875 0.609375 -0.53125 1.65625l3.828125 0zm4.6257324 5.671875l0 -13.359375l2.5625 0l0 13.359375l-2.5625 0zm10.460327 0l0 -13.25l2.6875 0l0 11.0l6.703125 0l0 2.25l-9.390625 0zm11.317871 0l0 -13.359375l9.90625 0l0 2.265625l-7.21875 0l0 2.953125l6.71875 0l0 2.25l-6.71875 0l0 3.640625l7.46875 0l0 2.25l-10.15625 0zm12.4279785 -13.359375l4.9375 0q1.65625 0 2.53125 0.265625q1.1875 0.34375 2.015625 1.234375q0.84375 0.875 1.28125 2.15625q0.4375 1.28125 0.4375 3.15625q0 1.640625 -0.40625 2.84375q-0.5 1.453125 -1.4375 2.359375q-0.703125 0.671875 -1.890625 1.0625q-0.890625 0.28125 -2.390625 0.28125l-5.078125 0l0 -13.359375zm2.703125 2.265625l0 8.84375l2.015625 0q1.125 0 1.625 -0.125q0.65625 -0.171875 1.078125 -0.5625q0.4375 -0.390625 0.703125 -1.28125q0.28125 -0.90625 0.28125 -2.453125q0 -1.546875 -0.28125 -2.375q-0.265625 -0.828125 -0.765625 -1.28125q-0.484375 -0.46875 -1.234375 -0.640625q-0.5625 -0.125 -2.21875 -0.125l-1.203125 0zm9.863525 8.328125l2.5625 -0.390625q0.171875 0.75 0.671875 1.140625q0.5 0.390625 1.40625 0.390625q0.984375 0 1.484375 -0.375q0.34375 -0.25 0.34375 -0.671875q0 -0.296875 -0.1875 -0.484375q-0.1875 -0.1875 -0.859375 -0.34375q-3.09375 -0.6875 -3.921875 -1.25q-1.140625 -0.78125 -1.140625 -2.171875q0 -1.265625 0.984375 -2.109375q1.0 -0.859375 3.078125 -0.859375q1.984375 0 2.953125 0.65625q0.96875 0.640625 1.328125 1.90625l-2.40625 0.4375q-0.15625 -0.5625 -0.59375 -0.859375q-0.421875 -0.296875 -1.234375 -0.296875q-1.0 0 -1.4375 0.28125q-0.296875 0.203125 -0.296875 0.515625q0 0.265625 0.25 0.46875q0.34375 0.25 2.390625 0.71875q2.046875 0.453125 2.859375 1.140625q0.796875 0.671875 0.796875 1.890625q0 1.34375 -1.109375 2.296875q-1.109375 0.953125 -3.28125 0.953125q-1.984375 0 -3.140625 -0.796875q-1.140625 -0.8125 -1.5 -2.1875z" fill-rule="nonzero"/><path fill="#cfe2f3" d="m15.470438 183.88264l270.57394 0l0 62.128326l-270.57394 0z" fill-rule="evenodd"/><path stroke="#000000" stroke-width="1.0" stroke-linejoin="round" stroke-linecap="butt" d="m15.470438 183.88264l270.57394 0l0 62.128326l-270.57394 0z" fill-rule="evenodd"/><path fill="#000000" d="m62.70663 212.92056q0.515625 -0.484375 1.046875 -0.484375q0.5937462 0 0.9843712 0.4375q0.390625 0.421875 0.390625 1.421875l0 1.8125q0 1.0 -0.390625 1.4375q-0.390625 0.421875 -1.0156212 0.421875q-0.578125 0 -0.96875 -0.328125q-0.28125 -0.25 -0.453125 -1.0q-0.15625 -0.765625 -0.796875 -1.140625q-1.109375 -0.65625 -2.828125 -0.65625q-1.984375 0 -3.1875 1.171875q-1.1875 1.15625 -1.1875 2.9375q0 1.640625 1.140625 2.59375q1.15625 0.9375 3.828125 0.9375q1.75 0 2.859375 -0.34375q0.65625 -0.21875 1.234375 -0.75q0.59375 -0.53125 1.0781212 -0.53125q0.5625 0 0.984375 0.421875q0.421875 0.421875 0.421875 1.0q0 0.9375 -1.28125 1.765625q-1.8749962 1.25 -5.515621 1.25q-3.265625 0 -5.09375 -1.359375q-2.453125 -1.8125 -2.453125 -4.96875q0 -3.0 1.984375 -4.953125q2.0 -1.96875 5.21875 -1.96875q1.15625 0 2.15625 0.21875q1.0 0.21875 1.84375 0.65625zm13.833981 -5.828125l0 14.9375l3.375 0q1.0 0 1.4375 0.390625q0.4375 0.375 0.4375 1.015625q0 0.609375 -0.4375 1.0q-0.4375 0.390625 -1.4375 0.390625l-9.53125 0q-1.015625 0 -1.453125 -0.390625q-0.421875 -0.390625 -0.421875 -1.015625q0 -0.625 0.421875 -1.0q0.4375 -0.390625 1.453125 -0.390625l3.359375 0l0 -12.140625l-2.25 0q-1.0 0 -1.4375 -0.375q-0.4375 -0.390625 -0.4375 -1.03125q0 -0.609375 0.421875 -1.0q0.4375 -0.390625 1.453125 -0.390625l5.046875 0zm17.927734 17.734375l0 -0.65625q-1.046875 0.5625 -2.328125 0.84375q-1.265625 0.28125 -2.296875 0.28125q-2.265625 0 -3.671875 -1.1875q-1.40625 -1.203125 -1.40625 -2.65625q0 -1.765625 1.796875 -3.265625q1.796875 -1.515625 4.96875 -1.515625q1.265625 0 2.9375 0.265625l0 -0.671875q0 -0.625 -0.546875 -1.015625q-0.53125 -0.40625 -2.046875 -0.40625q-1.25 0 -3.234375 0.5q-0.734375 0.171875 -1.140625 0.171875q-0.5625 0 -0.953125 -0.40625q-0.390625 -0.40625 -0.390625 -1.03125q0 -0.359375 0.140625 -0.609375q0.140625 -0.265625 0.375 -0.421875q0.25 -0.15625 1.03125 -0.375q1.046875 -0.28125 2.125 -0.453125q1.078125 -0.171875 1.953125 -0.171875q2.609375 0 4.046875 1.125q1.453125 1.125 1.453125 3.078125l0 5.78125l0.46875 0q1.015625 0 1.4375 0.390625q0.4375 0.375 0.4375 1.015625q0 0.609375 -0.4375 1.0q-0.421875 0.390625 -1.4375 0.390625l-3.28125 0zm0 -5.015625q-1.671875 -0.328125 -3.09375 -0.328125q-1.71875 0 -2.953125 0.828125q-0.765625 0.53125 -0.765625 1.078125q0 0.40625 0.375 0.640625q0.6875 0.453125 1.875 0.453125q1.015625 0 2.28125 -0.390625q1.28125 -0.390625 2.28125 -1.078125l0 -1.203125zm17.31836 -4.125q-0.6875 -0.421875 -1.4375 -0.625q-0.75 -0.21875 -1.578125 -0.21875q-1.625 0 -2.578125 0.53125q-0.421875 0.234375 -0.421875 0.515625q0 0.3125 0.5625 0.609375q0.4375 0.21875 1.953125 0.421875q2.796875 0.390625 3.890625 0.765625q1.4375 0.515625 2.21875 1.515625q0.78125 0.984375 0.78125 2.09375q0 1.5 -1.328125 2.515625q-1.90625 1.46875 -4.9375 1.46875q-1.21875 0 -2.25 -0.21875q-1.03125 -0.203125 -1.890625 -0.625q-0.203125 0.1875 -0.4375 0.28125q-0.234375 0.09375 -0.484375 0.09375q-0.65625 0 -1.046875 -0.421875q-0.390625 -0.4375 -0.390625 -1.453125l0 -0.9375q0 -1.015625 0.390625 -1.4375q0.390625 -0.4375 1.015625 -0.4375q0.515625 0 0.84375 0.28125q0.34375 0.28125 0.546875 0.96875q0.640625 0.546875 1.53125 0.828125q0.90625 0.265625 2.09375 0.265625q1.921875 0 2.984375 -0.59375q0.515625 -0.296875 0.515625 -0.625q0 -0.546875 -0.734375 -0.90625q-0.71875 -0.359375 -2.984375 -0.609375q-3.390625 -0.34375 -4.515625 -1.359375q-1.140625 -1.0 -1.140625 -2.46875q0 -1.5 1.28125 -2.5q1.71875 -1.359375 4.5 -1.359375q0.96875 0 1.859375 0.1875q0.90625 0.171875 1.734375 0.5625q0.25 -0.1875 0.46875 -0.28125q0.234375 -0.109375 0.421875 -0.109375q0.578125 0 0.953125 0.4375q0.390625 0.4375 0.390625 1.4375l0 0.6875q0 0.921875 -0.21875 1.25q-0.4375 0.625 -1.1875 0.625q-0.5 0 -0.890625 -0.3125q-0.375 -0.3125 -0.484375 -0.84375zm16.802742 0q-0.6875076 -0.421875 -1.4375076 -0.625q-0.75 -0.21875 -1.578125 -0.21875q-1.625 0 -2.578125 0.53125q-0.421875 0.234375 -0.421875 0.515625q0 0.3125 0.5625 0.609375q0.4375 0.21875 1.953125 0.421875q2.796875 0.390625 3.8906326 0.765625q1.4375 0.515625 2.21875 1.515625q0.78125 0.984375 0.78125 2.09375q0 1.5 -1.328125 2.515625q-1.90625 1.46875 -4.9375076 1.46875q-1.21875 0 -2.25 -0.21875q-1.03125 -0.203125 -1.890625 -0.625q-0.203125 0.1875 -0.4375 0.28125q-0.234375 0.09375 -0.484375 0.09375q-0.65625 0 -1.046875 -0.421875q-0.390625 -0.4375 -0.390625 -1.453125l0 -0.9375q0 -1.015625 0.390625 -1.4375q0.390625 -0.4375 1.015625 -0.4375q0.515625 0 0.84375 0.28125q0.34375 0.28125 0.546875 0.96875q0.640625 0.546875 1.53125 0.828125q0.90625 0.265625 2.09375 0.265625q1.921875 0 2.9843826 -0.59375q0.515625 -0.296875 0.515625 -0.625q0 -0.546875 -0.734375 -0.90625q-0.7187576 -0.359375 -2.9843826 -0.609375q-3.390625 -0.34375 -4.515625 -1.359375q-1.140625 -1.0 -1.140625 -2.46875q0 -1.5 1.28125 -2.5q1.71875 -1.359375 4.5 -1.359375q0.96875 0 1.859375 0.1875q0.9062576 0.171875 1.7343826 0.5625q0.25 -0.1875 0.46875 -0.28125q0.234375 -0.109375 0.421875 -0.109375q0.578125 0 0.953125 0.4375q0.390625 0.4375 0.390625 1.4375l0 0.6875q0 0.921875 -0.21875 1.25q-0.4375 0.625 -1.1875 0.625q-0.5 0 -0.890625 -0.3125q-0.375 -0.3125 -0.484375 -0.84375zm26.480469 8.421875q-0.375 0.4375 -0.609375 0.5625q-0.21875 0.125 -0.546875 0.125q-0.640625 0 -1.03125 -0.421875q-0.390625 -0.4375 -0.390625 -1.4375l0 -1.890625q0 -1.0 0.390625 -1.421875q0.390625 -0.4375 1.03125 -0.4375q0.5 0 0.828125 0.265625q0.34375 0.25 0.515625 0.859375q0.171875 0.609375 0.375 0.828125q0.390625 0.421875 1.390625 0.859375q1.015625 0.4375 2.21875 0.4375q1.875 0 3.078125 -0.875q0.765625 -0.53125 0.765625 -1.3125q0 -0.515625 -0.375 -0.96875q-0.359375 -0.46875 -1.1875 -0.765625q-0.546875 -0.203125 -2.453125 -0.5625q-2.296875 -0.421875 -3.46875 -1.015625q-1.171875 -0.609375 -1.859375 -1.703125q-0.6875 -1.09375 -0.6875 -2.375q0 -2.0 1.671875 -3.515625q1.6875 -1.515625 4.390625 -1.515625q1.078125 0 2.0 0.25q0.921875 0.234375 1.671875 0.71875q0.546875 -0.53125 1.09375 -0.53125q0.609375 0 1.0 0.4375q0.390625 0.421875 0.390625 1.421875l0 2.109375q0 1.015625 -0.390625 1.453125q-0.390625 0.421875 -1.0 0.421875q-0.515625 0 -0.90625 -0.3125q-0.296875 -0.234375 -0.453125 -0.921875q-0.140625 -0.703125 -0.375 -1.015625q-0.390625 -0.515625 -1.1875 -0.859375q-0.796875 -0.359375 -1.828125 -0.359375q-1.53125 0 -2.40625 0.703125q-0.875 0.703125 -0.875 1.46875q0 0.515625 0.359375 1.0q0.359375 0.484375 1.0625 0.765625q0.453125 0.1875 2.609375 0.609375q2.15625 0.421875 3.3125 0.9375q1.15625 0.5 1.921875 1.578125q0.765625 1.078125 0.765625 2.578125q0 2.078125 -1.46875 3.3125q-1.9375 1.640625 -4.953125 1.640625q-1.15625 0 -2.265625 -0.28125q-1.09375 -0.28125 -2.125 -0.84375zm25.25586 -11.1875q0.515625 -0.484375 1.046875 -0.484375q0.59375 0 0.984375 0.4375q0.390625 0.421875 0.390625 1.421875l0 1.8125q0 1.0 -0.390625 1.4375q-0.390625 0.421875 -1.015625 0.421875q-0.578125 0 -0.96875 -0.328125q-0.28125 -0.25 -0.453125 -1.0q-0.15625 -0.765625 -0.796875 -1.140625q-1.109375 -0.65625 -2.828125 -0.65625q-1.984375 0 -3.1875 1.171875q-1.1875 1.15625 -1.1875 2.9375q0 1.640625 1.140625 2.59375q1.15625 0.9375 3.828125 0.9375q1.75 0 2.859375 -0.34375q0.65625 -0.21875 1.234375 -0.75q0.59375 -0.53125 1.078125 -0.53125q0.5625 0 0.984375 0.421875q0.421875 0.421875 0.421875 1.0q0 0.9375 -1.28125 1.765625q-1.875 1.25 -5.515625 1.25q-3.265625 0 -5.09375 -1.359375q-2.453125 -1.8125 -2.453125 -4.96875q0 -3.0 1.984375 -4.953125q2.0 -1.96875 5.21875 -1.96875q1.15625 0 2.15625 0.21875q1.0 0.21875 1.84375 0.65625zm11.865234 -0.515625l0 1.75q1.75 -1.265625 2.765625 -1.6875q1.03125 -0.421875 1.921875 -0.421875q1.359375 0 2.640625 1.015625q0.875 0.671875 0.875 1.390625q0 0.59375 -0.421875 1.015625q-0.40625 0.421875 -1.0 0.421875q-0.515625 0 -1.09375 -0.515625q-0.5625 -0.53125 -1.015625 -0.53125q-0.59375 0 -1.765625 0.75q-1.15625 0.734375 -2.90625 2.203125l0 4.234375l3.984375 0q1.015625 0 1.4375 0.390625q0.4375 0.375 0.4375 1.015625q0 0.609375 -0.4375 1.0q-0.421875 0.390625 -1.4375 0.390625l-8.46875 0q-1.0 0 -1.4375 -0.390625q-0.421875 -0.390625 -0.421875 -1.015625q0 -0.625 0.421875 -1.0q0.4375 -0.390625 1.4375 -0.390625l1.671875 0l0 -6.8125l-1.015625 0q-1.0 0 -1.4375 -0.390625q-0.421875 -0.390625 -0.421875 -1.015625q0 -0.625 0.421875 -1.015625q0.4375 -0.390625 1.4375 -0.390625l3.828125 0zm24.41211 7.640625l-11.5 0q0.4375 1.09375 1.546875 1.765625q1.125 0.65625 3.015625 0.65625q1.5625 0 4.140625 -0.65625q1.078125 -0.28125 1.484375 -0.28125q0.5625 0 0.9375 0.40625q0.390625 0.390625 0.390625 0.984375q0 0.546875 -0.40625 0.9375q-0.546875 0.5 -2.671875 0.96875q-2.125 0.453125 -4.078125 0.453125q-3.359375 0 -5.375 -1.890625q-2.015625 -1.90625 -2.015625 -4.6875q0 -2.953125 2.171875 -4.796875q2.1875 -1.859375 5.03125 -1.859375q1.703125 0 3.125 0.609375q1.4375 0.59375 2.140625 1.28125q0.984375 1.015625 1.625 2.515625q0.4375 1.03125 0.4375 2.40625l0 1.1875zm-3.109375 -2.8125q-0.640625 -1.203125 -1.6875 -1.796875q-1.03125 -0.59375 -2.46875 -0.59375q-1.421875 0 -2.46875 0.59375q-1.03125 0.59375 -1.6875 1.796875l8.3125 0zm19.91211 2.8125l-11.5 0q0.4375 1.09375 1.546875 1.765625q1.125 0.65625 3.015625 0.65625q1.5625 0 4.140625 -0.65625q1.078125 -0.28125 1.484375 -0.28125q0.5625 0 0.9375 0.40625q0.390625 0.390625 0.390625 0.984375q0 0.546875 -0.40625 0.9375q-0.546875 0.5 -2.671875 0.96875q-2.125 0.453125 -4.078125 0.453125q-3.359375 0 -5.375 -1.890625q-2.015625 -1.90625 -2.015625 -4.6875q0 -2.953125 2.171875 -4.796875q2.1875 -1.859375 5.03125 -1.859375q1.703125 0 3.125 0.609375q1.4375 0.59375 2.140625 1.28125q0.984375 1.015625 1.625 2.515625q0.4375 1.03125 0.4375 2.40625l0 1.1875zm-3.109375 -2.8125q-0.640625 -1.203125 -1.6875 -1.796875q-1.03125 -0.59375 -2.46875 -0.59375q-1.421875 0 -2.46875 0.59375q-1.03125 0.59375 -1.6875 1.796875l8.3125 0zm10.037109 -4.828125l0 0.953125q0.765625 -0.65625 1.6875 -0.984375q0.921875 -0.328125 2.0 -0.328125q2.5 0 3.9375 1.546875q1.15625 1.21875 1.15625 3.21875l0 5.21875q0.890625 0 1.3125 0.390625q0.421875 0.375 0.421875 1.015625q0 0.609375 -0.4375 1.0q-0.421875 0.390625 -1.4375 0.390625l-2.53125 0q-1.0 0 -1.4375 -0.390625q-0.4375 -0.390625 -0.4375 -1.015625q0 -0.625 0.421875 -1.0q0.4375 -0.390625 1.328125 -0.390625l0 -5.296875q0 -0.921875 -0.5 -1.34375q-0.640625 -0.546875 -1.921875 -0.546875q-0.96875 0 -1.703125 0.375q-0.734375 0.375 -1.859375 1.59375l0 5.21875q1.078125 0 1.390625 0.203125q0.671875 0.40625 0.671875 1.203125q0 0.609375 -0.4375 1.0q-0.421875 0.390625 -1.4375 0.390625l-3.171875 0q-1.015625 0 -1.453125 -0.390625q-0.421875 -0.390625 -0.421875 -1.015625q0 -0.765625 0.65625 -1.1875q0.328125 -0.203125 1.40625 -0.203125l0 -6.8125q-0.890625 0 -1.3125 -0.390625q-0.421875 -0.40625 -0.421875 -1.015625q0 -0.625 0.421875 -1.015625q0.4375 -0.390625 1.453125 -0.390625l2.65625 0z" fill-rule="nonzero"/><path fill="#000000" fill-opacity="0.0" d="m286.04437 214.94681l247.36548 0.10760498" fill-rule="evenodd"/><path stroke="#000000" stroke-width="4.0" stroke-linejoin="round" stroke-linecap="butt" d="m286.04437 214.94681l223.36548 0.09718323" fill-rule="evenodd"/><path fill="#000000" stroke="#000000" stroke-width="4.0" stroke-linecap="butt" d="m509.40698 221.65091l18.155273 -6.5990295l-18.149506 -6.6148224z" fill-rule="evenodd"/><path fill="#000000" fill-opacity="0.0" d="m328.59436 171.17906l184.98608 0l0 42.00479l-184.98608 0z" fill-rule="evenodd"/><path fill="#000000" d="m345.20374 192.02094q-0.453125 -0.296875 -0.953125 -0.4375q-0.5 -0.140625 -1.046875 -0.140625q-1.078125 0 -1.71875 0.359375q-0.28125 0.15625 -0.28125 0.34375q0 0.203125 0.375 0.40625q0.296875 0.140625 1.3125 0.28125q1.859375 0.25 2.578125 0.515625q0.96875 0.328125 1.484375 1.0q0.515625 0.65625 0.515625 1.40625q0 1.0 -0.890625 1.671875q-1.265625 0.96875 -3.28125 0.96875q-0.8125 0 -1.5 -0.140625q-0.6875 -0.140625 -1.265625 -0.40625q-0.125 0.109375 -0.28125 0.171875q-0.15625 0.0625 -0.328125 0.0625q-0.4375 0 -0.703125 -0.28125q-0.25 -0.28125 -0.25 -0.953125l0 -0.640625q0 -0.671875 0.25 -0.953125q0.265625 -0.296875 0.6875 -0.296875q0.34375 0 0.5625 0.1875q0.234375 0.1875 0.359375 0.640625q0.421875 0.375 1.015625 0.5625q0.609375 0.1875 1.390625 0.1875q1.296875 0 2.0 -0.40625q0.34375 -0.203125 0.34375 -0.421875q0 -0.359375 -0.484375 -0.59375q-0.484375 -0.234375 -2.0 -0.40625q-2.25 -0.234375 -3.0 -0.90625q-0.765625 -0.671875 -0.765625 -1.640625q0 -1.0 0.859375 -1.671875q1.140625 -0.90625 3.0 -0.90625q0.640625 0 1.234375 0.125q0.609375 0.125 1.15625 0.375q0.171875 -0.125 0.3125 -0.1875q0.15625 -0.0625 0.28125 -0.0625q0.390625 0 0.640625 0.28125q0.25 0.28125 0.25 0.96875l0 0.453125q0 0.609375 -0.140625 0.828125q-0.296875 0.421875 -0.796875 0.421875q-0.328125 0 -0.59375 -0.203125q-0.25 -0.21875 -0.328125 -0.5625zm13.867462 2.890625l-7.65625 0q0.296875 0.734375 1.03125 1.1875q0.75 0.4375 2.015625 0.4375q1.03125 0 2.75 -0.453125q0.71875 -0.1875 0.984375 -0.1875q0.375 0 0.625 0.265625q0.265625 0.265625 0.265625 0.671875q0 0.359375 -0.28125 0.625q-0.359375 0.328125 -1.78125 0.640625q-1.40625 0.296875 -2.703125 0.296875q-2.25 0 -3.59375 -1.265625q-1.34375 -1.265625 -1.34375 -3.109375q0 -1.96875 1.453125 -3.203125q1.453125 -1.234375 3.359375 -1.234375q1.140625 0 2.078125 0.40625q0.953125 0.390625 1.421875 0.859375q0.65625 0.671875 1.09375 1.671875q0.28125 0.6875 0.28125 1.59375l0 0.796875zm-2.0625 -1.875q-0.4375 -0.796875 -1.125 -1.1875q-0.6875 -0.40625 -1.640625 -0.40625q-0.953125 0 -1.65625 0.40625q-0.6875 0.390625 -1.125 1.1875l5.546875 0zm8.117432 -1.34375l0 3.75q0 0.59375 0.25 0.78125q0.375 0.3125 1.359375 0.3125q1.4375 0 2.640625 -0.609375q0.46875 -0.234375 0.734375 -0.234375q0.359375 0 0.625 0.265625q0.265625 0.265625 0.265625 0.671875q0 0.359375 -0.28125 0.625q-0.453125 0.421875 -1.765625 0.78125q-1.3125 0.359375 -2.21875 0.359375q-1.734375 0 -2.609375 -0.75q-0.875 -0.75 -0.875 -1.84375l0 -4.109375l-0.671875 0q-0.671875 0 -0.96875 -0.25q-0.28125 -0.265625 -0.28125 -0.6875q0 -0.40625 0.28125 -0.65625q0.296875 -0.265625 0.96875 -0.265625l0.671875 0l0 -1.6875q0 -0.671875 0.265625 -0.953125q0.265625 -0.296875 0.671875 -0.296875q0.421875 0 0.671875 0.296875q0.265625 0.28125 0.265625 0.953125l0 1.6875l3.453125 0q0.671875 0 0.953125 0.265625q0.296875 0.25 0.296875 0.671875q0 0.40625 -0.296875 0.671875q-0.28125 0.25 -0.953125 0.25l-3.453125 0zm16.820587 12.015625l-10.25 0q-0.671875 0 -0.953125 -0.265625q-0.296875 -0.25 -0.296875 -0.671875q0 -0.421875 0.296875 -0.6875q0.28125 -0.25 0.953125 -0.25l10.25 0q0.671875 0 0.953125 0.25q0.28125 0.265625 0.28125 0.6875q0 0.40625 -0.28125 0.671875q-0.28125 0.265625 -0.953125 0.265625zm3.7111816 -6.640625l0 3.0625l1.125 0q0.671875 0 0.953125 0.25q0.28125 0.265625 0.28125 0.6875q0 0.40625 -0.28125 0.671875q-0.28125 0.265625 -0.953125 0.265625l-3.3125 0q-0.671875 0 -0.96875 -0.265625q-0.28125 -0.265625 -0.28125 -0.671875q0 -0.421875 0.28125 -0.6875q0.296875 -0.25 0.96875 -0.25l0.3125 0l0 -8.4375l-0.3125 0q-0.671875 0 -0.96875 -0.25q-0.28125 -0.265625 -0.28125 -0.6875q0 -0.40625 0.28125 -0.65625q0.296875 -0.265625 0.96875 -0.265625l2.1875 0l0 0.625q0.65625 -0.4375 1.359375 -0.65625q0.703125 -0.21875 1.4375 -0.21875q1.90625 0 3.25 1.296875q1.359375 1.296875 1.359375 2.96875q0 1.859375 -1.59375 3.0625q-1.328125 1.0 -3.0 1.0q-0.71875 0 -1.421875 -0.203125q-0.703125 -0.21875 -1.390625 -0.640625zm5.53125 -3.203125q0 -0.390625 -0.3125 -1.0q-0.296875 -0.609375 -0.9375 -1.015625q-0.640625 -0.40625 -1.515625 -0.40625q-1.390625 0 -2.21875 1.046875q-0.546875 0.734375 -0.546875 1.390625q0 0.75 0.796875 1.453125q0.796875 0.703125 1.96875 0.703125q1.1875 0 1.96875 -0.703125q0.796875 -0.703125 0.796875 -1.46875zm8.648712 -7.578125l0 1.96875l-2.21875 0l0 -1.96875l2.21875 0zm0.25 3.546875l0 6.390625l2.25 0q0.671875 0 0.953125 0.265625q0.296875 0.265625 0.296875 0.6875q0 0.40625 -0.296875 0.671875q-0.28125 0.25 -0.953125 0.25l-6.359375 0q-0.671875 0 -0.953125 -0.25q-0.28125 -0.265625 -0.28125 -0.6875q0 -0.40625 0.28125 -0.671875q0.28125 -0.265625 0.953125 -0.265625l2.25 0l0 -4.53125l-1.5 0q-0.671875 0 -0.96875 -0.25q-0.28125 -0.265625 -0.28125 -0.6875q0 -0.40625 0.28125 -0.65625q0.296875 -0.265625 0.96875 -0.265625l3.359375 0zm11.679932 3.96875l2.828125 2.421875q0.515625 0.03125 0.765625 0.296875q0.25 0.25 0.25 0.65625q0 0.40625 -0.28125 0.671875q-0.28125 0.25 -0.96875 0.25l-2.109375 0q-0.671875 0 -0.96875 -0.25q-0.28125 -0.265625 -0.28125 -0.703125q0 -0.328125 0.203125 -0.578125q0.203125 -0.25 0.5625 -0.34375l-1.390625 -1.1875l-1.421875 1.1875q0.421875 0.109375 0.609375 0.34375q0.1875 0.234375 0.1875 0.578125q0 0.4375 -0.28125 0.703125q-0.28125 0.25 -0.953125 0.25l-2.109375 0q-0.671875 0 -0.96875 -0.25q-0.28125 -0.265625 -0.28125 -0.6875q0 -0.390625 0.25 -0.640625q0.265625 -0.265625 0.765625 -0.296875l2.78125 -2.4375l-2.453125 -2.09375q-0.484375 -0.03125 -0.734375 -0.28125q-0.25 -0.265625 -0.25 -0.65625q0 -0.40625 0.28125 -0.65625q0.296875 -0.265625 0.96875 -0.265625l1.75 0q0.671875 0 0.953125 0.265625q0.28125 0.25 0.28125 0.65625q0 0.53125 -0.5 0.859375l1.125 0.953125l1.109375 -0.96875q-0.5 -0.34375 -0.5 -0.8125q0 -0.4375 0.28125 -0.6875q0.296875 -0.265625 0.96875 -0.265625l1.734375 0q0.671875 0 0.953125 0.265625q0.296875 0.25 0.296875 0.671875q0 0.375 -0.25 0.640625q-0.25 0.25 -0.75 0.28125l-2.453125 2.109375zm14.476837 1.109375l-7.65625 0q0.296875 0.734375 1.03125 1.1875q0.75 0.4375 2.015625 0.4375q1.03125 0 2.75 -0.453125q0.71875 -0.1875 0.984375 -0.1875q0.375 0 0.625 0.265625q0.265625 0.265625 0.265625 0.671875q0 0.359375 -0.28125 0.625q-0.359375 0.328125 -1.78125 0.640625q-1.40625 0.296875 -2.703125 0.296875q-2.25 0 -3.59375 -1.265625q-1.34375 -1.265625 -1.34375 -3.109375q0 -1.96875 1.453125 -3.203125q1.453125 -1.234375 3.359375 -1.234375q1.140625 0 2.078125 0.40625q0.953125 0.390625 1.421875 0.859375q0.65625 0.671875 1.09375 1.671875q0.28125 0.6875 0.28125 1.59375l0 0.796875zm-2.0625 -1.875q-0.4375 -0.796875 -1.125 -1.1875q-0.6875 -0.40625 -1.640625 -0.40625q-0.953125 0 -1.65625 0.40625q-0.6875 0.390625 -1.125 1.1875l5.546875 0zm9.508057 -6.75l0 9.9375l2.234375 0q0.6875 0 0.96875 0.265625q0.28125 0.265625 0.28125 0.6875q0 0.40625 -0.28125 0.671875q-0.28125 0.25 -0.96875 0.25l-6.34375 0q-0.671875 0 -0.96875 -0.25q-0.28125 -0.265625 -0.28125 -0.6875q0 -0.40625 0.28125 -0.671875q0.296875 -0.265625 0.96875 -0.265625l2.25 0l0 -8.078125l-1.515625 0q-0.65625 0 -0.953125 -0.25q-0.296875 -0.265625 -0.296875 -0.6875q0 -0.40625 0.28125 -0.65625q0.296875 -0.265625 0.96875 -0.265625l3.375 0zm9.586212 7.28125q0 -1.59375 0.53125 -3.234375q0.390625 -1.203125 1.21875 -2.671875q0.59375 -1.0625 0.875 -1.296875q0.28125 -0.25 0.625 -0.25q0.40625 0 0.671875 0.28125q0.28125 0.265625 0.28125 0.65625q0 0.265625 -0.21875 0.625q-0.984375 1.609375 -1.4375 3.03125q-0.453125 1.40625 -0.453125 2.859375q0 1.453125 0.453125 2.875q0.453125 1.40625 1.4375 3.015625q0.21875 0.359375 0.21875 0.625q0 0.390625 -0.28125 0.65625q-0.265625 0.28125 -0.671875 0.28125q-0.34375 0 -0.59375 -0.21875q-0.359375 -0.328125 -0.96875 -1.4375q-0.859375 -1.609375 -1.1875 -2.65625q-0.5 -1.609375 -0.5 -3.140625zm12.664307 0q0 1.59375 -0.53125 3.234375q-0.390625 1.203125 -1.203125 2.65625q-0.59375 1.0625 -0.875 1.3125q-0.28125 0.25 -0.625 0.25q-0.40625 0 -0.6875 -0.28125q-0.265625 -0.265625 -0.265625 -0.65625q0 -0.265625 0.21875 -0.625q0.984375 -1.609375 1.4375 -3.015625q0.453125 -1.421875 0.453125 -2.875q0 -1.453125 -0.453125 -2.859375q-0.453125 -1.421875 -1.4375 -3.03125q-0.21875 -0.359375 -0.21875 -0.625q0 -0.390625 0.265625 -0.65625q0.28125 -0.28125 0.6875 -0.28125q0.328125 0 0.59375 0.21875q0.359375 0.3125 0.953125 1.4375q0.875 1.609375 1.1875 2.65625q0.5 1.609375 0.5 3.140625z" fill-rule="nonzero"/></g></svg>